#N canvas 629 194 450 496 12;
#X obj 41 241 phasor~;
#X obj 135 258 phasor~;
#X obj 34 33 inlet;
#X obj 106 32 inlet;
#X obj 174 33 inlet;
#X obj 34 73 mtof;
#X floatatom 36 102 5 0 0 0 - - -;
#X obj 36 131 pack;
#X floatatom 111 69 5 0 0 0 Slew - -;
#X msg 38 168 \$1 \$2;
#X obj 40 198 line~;
#X obj 135 227 *~ 1.003;
#X obj 41 409 bob~;
#X floatatom 67 378 5 0 0 0 - - -;
#X floatatom 116 379 5 0 0 0 - - -;
#X obj 189 308 loadbang;
#X msg 184 384 550;
#X msg 232 387 3;
#X obj 42 437 hip~ 5;
#X obj 45 484 *~ 0.1;
#X obj 114 461 hsl 128 15 0 1 0 0 empty empty Volume -2 -8 0 10 -261234
-1 -1 0 1;
#X obj 45 517 dac~;
#X obj 42 297 expr~ $v1 - 1;
#X connect 0 0 22 0;
#X connect 1 0 22 0;
#X connect 2 0 5 0;
#X connect 3 0 8 0;
#X connect 4 0 20 0;
#X connect 5 0 6 0;
#X connect 6 0 7 0;
#X connect 7 0 9 0;
#X connect 8 0 7 1;
#X connect 9 0 10 0;
#X connect 10 0 0 0;
#X connect 10 0 11 0;
#X connect 11 0 1 0;
#X connect 12 0 18 0;
#X connect 13 0 12 1;
#X connect 14 0 12 2;
#X connect 15 0 16 0;
#X connect 15 0 17 0;
#X connect 16 0 13 0;
#X connect 17 0 14 0;
#X connect 18 0 19 0;
#X connect 19 0 21 0;
#X connect 19 0 21 1;
#X connect 20 0 19 1;
#X connect 22 0 12 0;
