#N canvas 652 109 759 701 12;
#N canvas 0 50 450 250 (subpatch) 0;
#X array \$0-points 10 float 3;
#A 0 0.771438 -0.514284 -0.328574 -0.0714298 -0.671432 -0.24286 -0.571434
-3.45707e-06 0.471426 -0.400008;
#X coords 0 1 10 -1 200 140 1;
#X restore 403 167 graph;
#X obj 146 145 metro;
#X floatatom 212 81 5 0 0 0 - - -;
#X obj 130 99 tgl 15 0 empty empty empty 17 7 0 10 -262144 -1 -1 1
1;
#X obj 146 298 tabread \$0-points;
#X floatatom 152 335 5 0 0 0 - - -;
#X obj 181 454 vline~;
#X obj 184 524 *~;
#X floatatom 223 491 5 0 1 0 - - -;
#X obj 184 567 dac~;
#X obj 146 190 f;
#X obj 201 190 + 1;
#X floatatom 145 242 5 0 0 0 - - -;
#X obj 210 228 mod 10;
#X obj 260 26 hsl 128 15 0.01 5 1 0 empty empty empty -2 -8 0 10 -262130
-1 -1 12400 1;
#X msg 176 413 \$1 \$2;
#X obj 170 382 pack;
#X connect 1 0 10 0;
#X connect 2 0 1 1;
#X connect 2 0 16 1;
#X connect 3 0 1 0;
#X connect 4 0 5 0;
#X connect 5 0 16 0;
#X connect 6 0 7 0;
#X connect 7 0 9 0;
#X connect 7 0 9 1;
#X connect 8 0 7 1;
#X connect 10 0 11 0;
#X connect 10 0 12 0;
#X connect 11 0 13 0;
#X connect 12 0 4 0;
#X connect 13 0 10 1;
#X connect 14 0 2 0;
#X connect 15 0 6 0;
#X connect 16 0 15 0;
