#N canvas 591 82 639 703 12;
#X obj 65 576 dac~;
#X obj 68 518 *~;
#X floatatom 125 501 5 0 1 0 - - -;
#N canvas 606 232 450 300 oscillators 0;
#X obj 71 110 phasor~;
#X floatatom 72 73 5 0 0 0 - - -;
#X obj 70 139 expr~ $v1 * 2 + 1;
#X obj 209 111 phasor~;
#X obj 210 145 expr~ $v1 * 2 + 1;
#X obj 209 87 * 1.001;
#X obj 64 14 inlet;
#X obj 67 207 outlet~;
#X connect 0 0 2 0;
#X connect 1 0 0 0;
#X connect 1 0 5 0;
#X connect 2 0 7 0;
#X connect 3 0 4 0;
#X connect 5 0 3 0;
#X connect 6 0 1 0;
#X restore 71 251 pd oscillators;
#X floatatom 68 199 5 0 0 0 - - -;
#X obj 48 30 notein;
#X obj 50 124 mtof;
#N canvas 525 249 450 300 filters 0;
#X obj 70 165 bob~;
#X floatatom 97 130 5 0 0 0 - - -;
#X obj 101 95 loadbang;
#X msg 149 128 1.5;
#X obj 56 24 inlet~;
#X obj 70 232 outlet~;
#X obj 233 26 receive cutoff1;
#X floatatom 240 71 5 0 0 0 - - -;
#X obj 238 102 / 127;
#X obj 241 138 pow 4;
#X obj 246 165 * 10000;
#X obj 257 227 + 20;
#X connect 0 0 5 0;
#X connect 1 0 0 1;
#X connect 2 0 3 0;
#X connect 2 0 1 0;
#X connect 3 0 0 2;
#X connect 4 0 0 0;
#X connect 6 0 7 0;
#X connect 7 0 8 0;
#X connect 8 0 9 0;
#X connect 9 0 10 0;
#X connect 10 0 11 0;
#X connect 11 0 0 1;
#X restore 73 308 pd filters;
#X obj 40 77 stripnote;
#N canvas 558 185 450 435 amplifiers 0;
#X obj 101 252 vline~;
#X obj 116 68 / 127;
#X obj 161 108 * 0.5;
#X obj 118 151 pack;
#X obj 224 67 sel 0;
#X msg 96 202 \$1 5 \, \$1 200 5;
#X obj 116 22 inlet;
#X obj 70 302 *~;
#X obj 84 342 outlet~;
#X obj 17 60 inlet~;
#X obj 219 35 inlet;
#X obj 296 31 receive releaseRate;
#X floatatom 316 90 5 0 0 0 - - -;
#X obj 345 137 * 20;
#X floatatom 344 174 5 0 0 0 - - -;
#X msg 269 250 0 \$1;
#X obj 281 209 f;
#X obj 260 161 bng 15 250 50 0 empty empty empty 17 7 0 10 -262144
-1 -1;
#X msg 397 171 700;
#X obj 384 103 loadbang;
#X connect 0 0 7 1;
#X connect 1 0 3 0;
#X connect 1 0 2 0;
#X connect 2 0 3 1;
#X connect 3 0 5 0;
#X connect 4 0 17 0;
#X connect 5 0 0 0;
#X connect 6 0 1 0;
#X connect 7 0 8 0;
#X connect 9 0 7 0;
#X connect 10 0 4 0;
#X connect 11 0 12 0;
#X connect 12 0 13 0;
#X connect 13 0 14 0;
#X connect 14 0 16 1;
#X connect 15 0 0 0;
#X connect 16 0 15 0;
#X connect 17 0 16 0;
#X connect 18 0 16 1;
#X connect 19 0 18 0;
#X restore 77 381 pd amplifiers;
#X obj 179 49 ctlin 21;
#X floatatom 186 93 5 0 0 0 - - -;
#X floatatom 273 100 5 0 0 0 - - -;
#X obj 266 49 ctlin 22;
#X obj 188 138 send cutoff1;
#X obj 198 203 receive cutoff1;
#X floatatom 202 264 5 0 0 0 - - -;
#X obj 310 135 send releaseRate;
#X connect 1 0 0 0;
#X connect 1 0 0 1;
#X connect 2 0 1 1;
#X connect 3 0 7 0;
#X connect 4 0 3 0;
#X connect 5 0 8 0;
#X connect 5 1 8 1;
#X connect 5 1 9 2;
#X connect 6 0 4 0;
#X connect 7 0 9 0;
#X connect 8 0 6 0;
#X connect 8 1 9 1;
#X connect 9 0 1 0;
#X connect 10 0 11 0;
#X connect 11 0 14 0;
#X connect 12 0 17 0;
#X connect 13 0 12 0;
#X connect 15 0 16 0;
