#N canvas 0 56 1280 703 12;
#X obj 229 178 *~;
#X floatatom 270 163 5 0 4 0 - - -;
#X obj 195 223 dac~;
#X obj 210 10 adc~ 2;
#X obj 101 63 vu 15 120 empty empty -1 -8 0 10 -66577 -1 1 0;
#X obj 176 95 env~;
#X obj 170 139 - 90;
#X obj 226 57 *~;
#X floatatom 274 44 5 0 20 0 - - -;
#X obj 243 120 clip~ -1 1;
#X floatatom 354 60 5 0 1 0 - - -;
#X obj 285 89 * -1;
#X obj 124 307 writesf~ 1;
#X msg 13 194 open mysound.wav;
#X msg 80 223 start;
#X msg 124 257 stop;
#X connect 0 0 2 0;
#X connect 0 0 2 1;
#X connect 0 0 12 0;
#X connect 1 0 0 1;
#X connect 3 0 7 0;
#X connect 5 0 6 0;
#X connect 6 0 4 0;
#X connect 7 0 5 0;
#X connect 7 0 9 0;
#X connect 8 0 7 1;
#X connect 9 0 0 0;
#X connect 10 0 9 2;
#X connect 10 0 11 0;
#X connect 11 0 9 1;
#X connect 13 0 12 0;
#X connect 14 0 12 0;
#X connect 15 0 12 0;
