#N canvas 0 56 1280 703 12;
#X obj 79 116 osc~;
#X obj 77 159 *~;
#X obj 127 294 dac~;
#X obj 57 63 vline~;
#X obj 161 140 vline~;
#X obj 259 1 bng 15 250 50 0 empty empty empty 17 7 0 10 -262144 -1
-1;
#X obj 300 204 *~;
#X obj 415 188 vline~;
#X msg 38 17 220 0 0 \, 440 10000 0;
#X msg 384 128 0.5 20 0 \, 0.2 10 20 \, 0 100 200;
#X obj 280 108 noise~;
#X msg 184 102 0.7 20;
#X msg 498 163 0.7 20;
#X msg 141 48 0.5 20 0 \, 0.7 10 20 \, 0 100 200;
#X connect 0 0 1 0;
#X connect 1 0 2 0;
#X connect 1 0 2 1;
#X connect 3 0 0 0;
#X connect 4 0 1 1;
#X connect 5 0 8 0;
#X connect 5 0 13 0;
#X connect 5 0 9 0;
#X connect 5 0 10 0;
#X connect 6 0 2 0;
#X connect 6 0 2 1;
#X connect 7 0 6 1;
#X connect 8 0 3 0;
#X connect 9 0 7 0;
#X connect 10 0 6 0;
#X connect 11 0 4 0;
#X connect 12 0 7 0;
#X connect 13 0 4 0;
