#N canvas 0 56 1280 703 12;
#X obj 85 145 osc~;
#X floatatom 77 92 5 0 0 0 - - -;
#X obj 84 192 *~;
#X floatatom 135 160 5 0 1 0 - - -;
#X obj 211 143 osc~;
#X floatatom 203 90 5 0 0 0 - - -;
#X obj 210 190 *~;
#X floatatom 261 158 5 0 1 0 - - -;
#X obj 142 308 dac~;
#X obj 150 275 *~;
#X floatatom 197 261 5 0 1 0 - - -;
#X floatatom 208 5 5 0 0 0 - - -;
#X obj 103 48 * 1;
#X obj 196 52 * 2;
#X obj 313 136 osc~;
#X floatatom 305 83 5 0 0 0 - - -;
#X obj 312 183 *~;
#X floatatom 363 151 5 0 1 0 - - -;
#X obj 406 135 osc~;
#X floatatom 398 82 5 0 0 0 - - -;
#X obj 405 182 *~;
#X floatatom 456 150 5 0 1 0 - - -;
#X obj 513 133 osc~;
#X floatatom 505 80 5 0 0 0 - - -;
#X obj 512 180 *~;
#X floatatom 563 148 5 0 1 0 - - -;
#X obj 298 45 * 3;
#X obj 391 44 * 4;
#X obj 498 42 * 5;
#X connect 0 0 2 0;
#X connect 1 0 0 0;
#X connect 2 0 9 0;
#X connect 3 0 2 1;
#X connect 4 0 6 0;
#X connect 5 0 4 0;
#X connect 6 0 9 0;
#X connect 7 0 6 1;
#X connect 9 0 8 0;
#X connect 9 0 8 1;
#X connect 10 0 9 1;
#X connect 11 0 12 0;
#X connect 11 0 13 0;
#X connect 11 0 26 0;
#X connect 11 0 27 0;
#X connect 11 0 28 0;
#X connect 12 0 1 0;
#X connect 13 0 5 0;
#X connect 14 0 16 0;
#X connect 15 0 14 0;
#X connect 16 0 9 0;
#X connect 17 0 16 1;
#X connect 18 0 20 0;
#X connect 19 0 18 0;
#X connect 20 0 9 0;
#X connect 21 0 20 1;
#X connect 22 0 24 0;
#X connect 23 0 22 0;
#X connect 24 0 9 0;
#X connect 25 0 24 1;
#X connect 26 0 15 0;
#X connect 27 0 19 0;
#X connect 28 0 23 0;
