#N canvas 409 71 1280 703 12;
#X obj 80 23 key;
#X floatatom 79 72 5 0 0 0 - - -;
#X obj 151 34 keyup;
#X floatatom 154 74 5 0 0 0 - - -;
#X obj 231 47 keyname;
#X symbolatom 271 77 10 0 0 0 - - -;
#X obj 108 166 osc~;
#X floatatom 95 140 5 0 0 0 - - -;
#X obj 108 209 *~;
#X floatatom 174 183 5 0 1 0 - - -;
#X obj 130 276 dac~;
#X obj 89 107 select 97 115;
#X floatatom 152 141 5 0 0 0 - - -;
#X obj 380 173 midiin;
#X floatatom 376 239 5 0 0 0 - - -;
#X obj 373 319 print;
#X obj 493 177 notein;
#X floatatom 466 235 5 0 0 0 - - -;
#X floatatom 525 241 5 0 0 0 - - -;
#X floatatom 590 235 5 0 0 0 - - -;
#X obj 460 303 mtof;
#X floatatom 473 369 5 0 0 0 - - -;
#X floatatom 203 475 5 0 0 0 - - -;
#X obj 228 427 ctlin;
#X floatatom 273 505 5 0 0 0 - - -;
#X floatatom 333 534 5 0 0 0 - - -;
#X obj 173 513 / 127;
#X floatatom 174 574 5 0 0 0 - - -;
#X connect 0 0 1 0;
#X connect 1 0 11 0;
#X connect 2 0 3 0;
#X connect 4 1 5 0;
#X connect 6 0 8 0;
#X connect 7 0 6 0;
#X connect 8 0 10 0;
#X connect 8 0 10 1;
#X connect 9 0 8 1;
#X connect 11 0 7 0;
#X connect 11 1 12 0;
#X connect 12 0 6 0;
#X connect 13 0 14 0;
#X connect 14 0 15 0;
#X connect 16 0 17 0;
#X connect 16 1 18 0;
#X connect 16 2 19 0;
#X connect 17 0 20 0;
#X connect 20 0 21 0;
#X connect 21 0 6 0;
#X connect 22 0 26 0;
#X connect 23 0 22 0;
#X connect 23 1 24 0;
#X connect 23 2 25 0;
#X connect 26 0 27 0;
#X connect 27 0 8 1;
