#N canvas 0 56 1280 703 12;
#X obj 153 107 osc~;
#X floatatom 174 27 5 0 0 0 - - -;
#X obj 111 185 *~;
#X obj 197 269 *~;
#X floatatom 251 255 5 0 1 0 - - -;
#X obj 208 310 dac~;
#X obj 48 141 *~;
#X floatatom 80 117 5 0 0 0 - - -;
#X obj 37 38 adc~ 2;
#X obj 253 114 osc~;
#X obj 187 222 *~;
#X floatatom 246 27 5 0 0 0 - - -;
#X connect 0 0 2 1;
#X connect 1 0 0 0;
#X connect 2 0 10 0;
#X connect 3 0 5 0;
#X connect 3 0 5 1;
#X connect 4 0 3 1;
#X connect 6 0 2 0;
#X connect 7 0 6 1;
#X connect 8 0 6 0;
#X connect 9 0 10 1;
#X connect 10 0 3 0;
#X connect 11 0 9 0;
