#N canvas 0 56 1280 703 12;
#X obj 75 209 osc~;
#X obj 77 246 *~;
#X obj 75 301 dac~;
#X obj 93 180 +~;
#X floatatom 128 156 5 0 0 1 Car_Frequency - -;
#X text 122 202 Carrier;
#X obj 76 39 osc~;
#X floatatom 76 9 5 0 0 0 - - -;
#X obj 75 81 *~;
#X floatatom 115 62 5 0 0 1 Amp - -;
#X obj 204 20 hsl 128 15 50 2000 0 0 empty empty empty -2 -8 0 10 -204786
-1 -1 1700 1;
#X obj 206 74 *;
#X floatatom 245 52 5 0 0 0 - - -;
#X obj 151 259 vline~;
#X floatatom 179 224 5 0 1 0 - - -;
#X msg 227 224 0 \, 1 10 \, 0 1000 10;
#X connect 0 0 1 0;
#X connect 1 0 2 0;
#X connect 1 0 2 1;
#X connect 3 0 0 0;
#X connect 4 0 3 1;
#X connect 6 0 8 0;
#X connect 7 0 6 0;
#X connect 8 0 3 0;
#X connect 9 0 8 1;
#X connect 10 0 4 0;
#X connect 10 0 11 0;
#X connect 11 0 7 0;
#X connect 12 0 11 1;
#X connect 13 0 1 1;
#X connect 14 0 13 0;
#X connect 15 0 13 0;
