#N canvas 0 56 1280 703 12;
#X obj 44 17 noise~;
#X obj 65 117 *~;
#X floatatom 111 91 5 0 1 0 - - -;
#X obj 200 46 / 127;
#X obj 192 14 ctlin 25;
#X obj 61 167 dac~;
#X obj 21 84 bp~ 1000 5;
#X obj 121 43 * 50;
#X obj 314 68 noise~;
#X obj 313 137 *~;
#X obj 309 178 dac~;
#X obj 361 115 vline~;
#X obj 391 16 notein;
#X obj 411 44 / 127;
#X msg 414 81 \$1 \, 0 10;
#X connect 0 0 6 0;
#X connect 1 0 5 0;
#X connect 1 0 5 1;
#X connect 2 0 1 1;
#X connect 3 0 2 0;
#X connect 4 0 3 0;
#X connect 4 0 7 0;
#X connect 6 0 1 0;
#X connect 7 0 6 1;
#X connect 8 0 9 0;
#X connect 9 0 10 0;
#X connect 9 0 10 1;
#X connect 11 0 9 1;
#X connect 12 1 13 0;
#X connect 13 0 14 0;
#X connect 14 0 11 0;
