#N canvas 0 56 1280 703 12;
#X obj 65 213 *~;
#X floatatom 112 195 5 0 1 0 - - -;
#X obj 68 260 dac~;
#X obj 59 93 *~;
#X floatatom 101 65 5 0 0 0 - - -;
#X obj 71 147 clip~ -1 1;
#X obj 59 33 adc~ 2;
#X floatatom 194 80 5 0 0 0 - - -;
#X msg 120 110 * -1;
#X connect 0 0 2 0;
#X connect 0 0 2 1;
#X connect 1 0 0 1;
#X connect 3 0 5 0;
#X connect 4 0 3 1;
#X connect 5 0 0 0;
#X connect 6 0 3 0;
#X connect 7 0 5 2;
#X connect 7 0 8 0;
#X connect 8 0 5 1;
