#N canvas 0 56 1280 703 12;
#N canvas 0 50 450 250 (subpatch) 0;
#X array \$0-pitch 4 float 3;
#A 0 62 65 69 72;
#X coords 0 90 4 20 200 140 1 0 0;
#X restore 543 37 graph;
#X obj 383 35 notein;
#X obj 378 73 stripnote;
#X obj 420 118 f;
#X obj 461 119 + 1;
#X obj 466 158 % 4;
#X obj 358 114 t f b;
#X obj 371 188 array set \$0-pitch;
#X obj 44 68 metro 0.25 120 permin;
#X msg 47 34 tempo \$1 permin;
#X floatatom 45 5 5 0 0 0 - - -;
#X obj 18 35 tgl 15 0 empty empty empty 17 7 0 10 -262144 -1 -1 0 1
;
#X obj 52 133 f;
#X obj 92 134 + 1;
#X obj 51 165 % 4;
#X floatatom 50 201 5 0 0 0 - - -;
#X msg 73 98 0;
#X obj 51 235 array get \$0-pitch;
#X floatatom 52 265 5 0 0 0 - - -;
#X obj 56 331 pd_phasor;
#X floatatom 110 275 5 0 500 1 Slew - -;
#X obj 153 316 hsl 128 15 0 1 0 0 empty empty Volume -2 -8 0 10 -261234
-1 -1 1700 1;
#X connect 1 0 2 0;
#X connect 1 1 2 1;
#X connect 2 0 6 0;
#X connect 3 0 4 0;
#X connect 3 0 7 1;
#X connect 4 0 3 0;
#X connect 4 0 5 0;
#X connect 5 0 3 1;
#X connect 6 0 7 0;
#X connect 6 1 3 0;
#X connect 8 0 12 0;
#X connect 9 0 8 0;
#X connect 10 0 9 0;
#X connect 11 0 8 0;
#X connect 11 0 16 0;
#X connect 12 0 13 0;
#X connect 12 0 14 0;
#X connect 13 0 12 1;
#X connect 14 0 15 0;
#X connect 15 0 17 0;
#X connect 16 0 12 1;
#X connect 17 0 18 0;
#X connect 18 0 19 0;
#X connect 20 0 19 1;
#X connect 21 0 19 2;
