#N canvas 0 56 1280 703 12;
#X obj 175 412 osc~ 417;
#X obj 262 413 osc~ 528;
#X obj 348 413 osc~ 639;
#X obj 621 88 dac~;
#X obj 525 20 catch~ left;
#X obj 675 20 catch~ right;
#X obj 229 658 throw~ left;
#X obj 335 660 throw~ right;
#X obj 178 503 *~ 0;
#X obj 269 505 *~ 0;
#X obj 353 508 *~ 0;
#X obj 208 446 r env2;
#X obj 298 446 r env3;
#X obj 376 447 r env4;
#X obj 62 279 *~ 0.1;
#X obj 160 279 *~ 0.1;
#X floatatom 16 112 5 0 0 0 - - -;
#X floatatom 154 115 5 0 0 0 - - -;
#X text 169 94 entrainment freq;
#X obj 164 176 osc~;
#X obj 41 158 osc~;
#X obj 121 144 +;
#X floatatom 215 243 5 0 1 0 - - -;
#X text 220 205 vol;
#X text 61 109 base freq;
#X obj 53 334 throw~ left;
#X obj 159 336 throw~ right;
#X obj 347 9 tgl 15 0 empty empty empty 17 7 0 10 -262144 -1 -1 1 1
;
#X obj 346 78 bng 15 250 50 0 empty empty empty 17 7 0 10 -262144 -1
-1;
#X floatatom 350 151 5 0 0 0 - - -;
#X obj 401 243 bng 15 250 50 0 empty empty empty 17 7 0 10 -262144
-1 -1;
#X obj 405 301 line 0 1;
#X floatatom 462 328 5 0 0 0 - - -;
#X obj 390 333 s env2;
#X obj 542 252 bng 15 250 50 0 empty empty empty 17 7 0 10 -262144
-1 -1;
#X obj 543 327 line 0 1;
#X floatatom 600 354 5 0 0 0 - - -;
#X obj 672 307 bng 15 250 50 0 empty empty empty 17 7 0 10 -262144
-1 -1;
#X obj 673 382 line 0 1;
#X floatatom 757 394 5 0 0 0 - - -;
#X obj 528 359 s env3;
#X obj 658 414 s env4;
#X obj 342 41 metro 4000;
#X floatatom 465 89 5 0 0 0 - - -;
#X msg 887 55 stop;
#X obj 832 115 writesf~;
#X msg 779 18 open binaural_beat.wav \, start;
#X obj 752 319 delay 70;
#X obj 611 274 delay 70;
#X obj 471 252 delay 70;
#X msg 673 351 0.1 170;
#X msg 405 270 0.1 170;
#X msg 543 296 0.15 170;
#X msg 752 343 0 4000;
#X msg 611 298 0 4000;
#X msg 471 276 0 4000;
#X obj 349 179 sel 0 1 2 3, f 65;
#X obj 355 104 random 4;
#X obj 448 68 random 4000;
#X obj 262 592 clip~ -1 1;
#X floatatom 367 544 5 0 0 0 - - -;
#X msg 311 555 * -1;
#X obj 276 624 *~ 0.09;
#X connect 0 0 8 0;
#X connect 1 0 9 0;
#X connect 2 0 10 0;
#X connect 4 0 3 0;
#X connect 4 0 45 0;
#X connect 5 0 3 1;
#X connect 5 0 45 0;
#X connect 8 0 59 0;
#X connect 9 0 59 0;
#X connect 10 0 59 0;
#X connect 11 0 8 1;
#X connect 12 0 9 1;
#X connect 13 0 10 1;
#X connect 14 0 25 0;
#X connect 15 0 26 0;
#X connect 16 0 20 0;
#X connect 16 0 21 0;
#X connect 17 0 21 1;
#X connect 19 0 15 0;
#X connect 20 0 14 0;
#X connect 21 0 19 0;
#X connect 22 0 14 1;
#X connect 22 0 15 1;
#X connect 27 0 42 0;
#X connect 28 0 57 0;
#X connect 29 0 56 0;
#X connect 30 0 51 0;
#X connect 30 0 49 0;
#X connect 31 0 32 0;
#X connect 31 0 33 0;
#X connect 34 0 52 0;
#X connect 34 0 48 0;
#X connect 35 0 36 0;
#X connect 35 0 40 0;
#X connect 37 0 50 0;
#X connect 37 0 47 0;
#X connect 38 0 39 0;
#X connect 38 0 41 0;
#X connect 42 0 28 0;
#X connect 42 0 58 0;
#X connect 44 0 45 0;
#X connect 46 0 45 0;
#X connect 47 0 53 0;
#X connect 48 0 54 0;
#X connect 49 0 55 0;
#X connect 50 0 38 0;
#X connect 51 0 31 0;
#X connect 52 0 35 0;
#X connect 53 0 38 0;
#X connect 54 0 35 0;
#X connect 55 0 31 0;
#X connect 56 0 30 0;
#X connect 56 1 34 0;
#X connect 56 2 37 0;
#X connect 56 3 37 0;
#X connect 56 3 30 0;
#X connect 57 0 29 0;
#X connect 58 0 43 0;
#X connect 58 0 42 1;
#X connect 59 0 62 0;
#X connect 60 0 59 2;
#X connect 60 0 61 0;
#X connect 61 0 59 1;
#X connect 62 0 6 0;
#X connect 62 0 7 0;
