#N canvas 0 56 1280 703 12;
#X obj 72 199 *~ 0.1;
#X obj 73 241 dac~;
#X obj 170 199 *~ 0.1;
#X floatatom 26 6 5 0 0 0 - - -;
#X floatatom 164 35 5 0 0 0 - - -;
#X text 220 15 entrainment freq;
#X obj 174 96 osc~;
#X obj 76 96 osc~;
#X obj 131 64 +;
#X floatatom 221 156 5 0 0 0 - - -;
#X text 269 155 vol;
#X text 81 5 base freq;
#X connect 0 0 1 0;
#X connect 2 0 1 1;
#X connect 3 0 7 0;
#X connect 3 0 8 0;
#X connect 4 0 8 1;
#X connect 6 0 2 0;
#X connect 7 0 0 0;
#X connect 8 0 6 0;
#X connect 9 0 0 0;
#X connect 9 0 2 0;
