#N canvas 619 155 605 571 12;
#N canvas 0 50 450 250 (subpatch) 0;
#X array \$0-steps 16 float 3;
#A 0 0 1.11429 0 0 2.35714 0 3.25714 0 0 0 0 3.25714 0 1.75714 0.857143
0;
#X coords 0 6 16 0 200 140 1 0 0;
#X restore 302 16 graph;
#X text 284 165 0=k \, 1=s \, 2=h \, 3=ks \, 4=kh \, 5=sh \, 6=ksh
;
#X obj 279 274 array set \$0-steps;
#X msg 275 221 0 2 3 4 5 6 0 1 2 3 4 5 6 0 1 2;
#N canvas 785 333 450 300 counter 0;
#X obj 41 25 inlet;
#X obj 105 26 inlet;
#X obj 40 88 t f b;
#X obj 43 60 tgl 15 0 empty empty empty 17 7 0 10 -261234 -1 -1 0 1
;
#X floatatom 109 66 5 0 0 1 BPM - -;
#X obj 42 146 metro 0.25 120 permin;
#X msg 112 100 tempo \$1 permin;
#X msg 90 173 0;
#X text 124 172 Reset;
#X obj 40 204 f;
#X obj 84 205 + 1;
#X obj 42 240 % 16;
#X obj 40 270 outlet;
#X connect 0 0 3 0;
#X connect 1 0 4 0;
#X connect 2 0 5 0;
#X connect 2 1 7 0;
#X connect 3 0 2 0;
#X connect 4 0 6 0;
#X connect 5 0 9 0;
#X connect 6 0 5 0;
#X connect 9 0 10 0;
#X connect 9 0 11 0;
#X connect 10 0 9 1;
#X connect 11 0 12 0;
#X restore 30 67 pd counter;
#X obj 29 26 tgl 15 0 empty empty empty 17 7 0 10 -262144 -1 -1 0 1
;
#X floatatom 93 26 5 0 0 0 - - -;
#X obj 29 102 hradio 16 1 0 16 empty empty empty 0 -8 0 10 -262144
-1 -1 0;
#X obj 30 141 array get \$0-steps;
#X floatatom 26 175 5 0 0 0 - - -;
#X obj 26 203 + 0.5;
#X obj 27 234 int;
#X floatatom 29 264 5 0 0 0 - - -;
#X obj 28 298 select 0 1 2 3 4 5 6;
#N canvas 0 56 450 300 kick 0;
#X restore 36 352 pd kick;
#X connect 3 0 2 0;
#X connect 4 0 7 0;
#X connect 5 0 4 0;
#X connect 6 0 4 1;
#X connect 7 0 8 0;
#X connect 8 0 9 0;
#X connect 9 0 10 0;
#X connect 10 0 11 0;
#X connect 11 0 12 0;
#X connect 12 0 13 0;
