#N canvas 0 56 1280 703 12;
#N canvas 0 50 450 250 (subpatch) 0;
#X array \$0-kick_wave 1000 float 1;
#A 0 0 0 0 0 0 0 0 0 0 0 0 0 0 0 0 0 0 0 0 0 0 0 0 0 0 0 0 0 0 0 0
0 0 0 0 0 0 0 0 0 0 0 0 0 0 0 0 0 0 0 0 0 0 0 0 0 0 0 0 0 0 0 0 0 0
0 0 0 0 0 0 0 0 0 0 0 0 0 0 0 0 0 0 0 0 0 0 0 0 0 0 0 0 0 0 0 0 0 0
0 0 0 0 0 0 0 0 0 0 0 0 0 0 0 0 0 0 0 0 0 0 0 0 0 0 0 0 0 0 0 0 0 0
0 0 0 0 0 0 0 0 0 0 0 0 0 0 0 0 0 0 0 0 0 0 0 0 0 0 0 0 0 0 0 0 0 0
0 0 0 0 0 0 0 0 0 0 0 0 0 0 0 0 0 0 0 0 0 0 0 0 0 0 0 0 0 0 0 0 0 0
0 0 0 0 0 0 0 0 0 0 0 0 0 0 0 0 0 0 0 0 0 0 0 0 0 0 0 0 0 0 0 0 0 0
0 0 0 0 0 0 0 0 0 0 0 0 0 0 0 0 0 0 0 0 0 0 0 0 0 0 0 0 0 0 0 0 0 0
0 0 0 0 0 0 0 0 0 0 0 0 0 0 0 0 0 0 0 0 0 0 0 0 0 0 0 0 0 0 0 0 0 0
0 0 0 0 0 0 0 0 0 0 0 0 0 0 0 0 0 0 0 0 0 0 0 0 0 0 0 0 0 0 0 0 0 0
0 0 0 0 0 0 0 0 0 0 0 0 0 0 0 0 0 0 0 0 0 0 0 0 0 0 0 0 0 0 0 0 0 0
0 0 0 0 0 0 0 0 0 0 0 0 0 0 0 0 0 0 0 0 0 0 0 0 0 0 0 0 0 0 0 0 0 0
0 0 0 0 0 0 0 0 0 0 0 0 0 0 0 0 0 0 0 0 0 0 0 0 0 0 0 0 0 0 0 0 0 0
0 0 0 0 0 0 0 0 0 0 0 0 0 0 0 0 0 0 0 0 0 0 0 0 0 0 0 0 0 0 0 0 0 0
0 0 0 0 0 0 0 0 0 0 0 0 0 0 0 0 0 0 0 0 0 0 0 0 0 0 0 0 0 0 0 0 0 0
0 0 0 0 0 0 0 0 0 0 0 0 0 0 0 0 0 0 0 0 0 0 0 0 0 0 0 0 0 0 0 0 0 0
0 0 0 0 0 0 0 0 0 0 0 0 0 0 0 0 0 0 0 0 0 0 0 0 0 0 0 0 0 0 0 0 0 0
0 0 0 0 0 0 0 0 0 0 0 0 0 0 0 0 0 0 0 0 0 0 0 0 0 0 0 0 0 0 0 0 0 0
0 0 0 0 0 0 0 0 0 0 0 0 0 0 0 0 0 0 0 0 0 0 0 0 0 0 0 0 0 0 0 0 0 0
0 0 0 0 0 0 0 0 0 0 0 0 0 0 0 0 0 0 0 0 0 0 0 0 0 0 0 0 0 0 0 0 0 0
0 0 0 0 0 0 0 0 0 0 0 0 0 0 0 0 0 0 0 0 0 0 0 0 0 0 0 0 0 0 0 0 0 0
0 0 0 0 0 0 0 0 0 0 0 0 0 0 0 0 0 0 0 0 0 0 0 0 0 0 0 0 0 0 0 0 0 0
0 0 0 0 0 0 0 0 0 0 0 0 0 0 0 0 0 0 0 0 0 0 0 0 0 0 0 0 0 0 0 0 0 0
0 0 0 0 0 0 0 0 0 0 0 0 0 0 0 0 0 0 0 0 0 0 0 0 0 0 0 0 0 0 0 0 0 0
0 0 0 0 0 0 0 0 0 0 0 0 0 0 0 0 0 0 0 0 0 0 0 0 0 0 0 0 0 0 0 0 0 0
0 0 0 0 0 0 0 0 0 0 0 0 0 0 0 0 0 0 0 0 0 0 0 0 0 0 0 0 0 0 0 0 0 0
0 0 0 0 0 0 0 0 0 0 0 0 0 0 0 0 0 0 0 0 0 0 0 0 0 0 0 0 0 0 0 0 0 0
0 0 0 0 0 0 0 0 0 0 0 0 0 0 0 0 0 0 0 0 0 0 0 0 0 0 0 0 0 0 0 0 0 0
0 0 0 0 0 0 0 0 0 0 0 0 0 0 0 0 0 0 0 0 0 0 0 0 0 0 0 0 0 0 0 0 0 0
0 0 0 0 0 0 0 0 0 0 0 0 0 0 0 0 0;
#X coords 0 1 1000 -1 200 140 1;
#X restore 50 326 graph;
#X obj 278 528 tgl 15 0 empty empty empty 17 7 0 10 -262144 -1 -1 1
1;
#X obj 282 603 tabwrite~ \$0-kick_wave;
#X obj 43 657 dac~;
#X obj 34 536 *~ 0.5;
#N canvas 278 99 783 661 kick 0;
#X obj 57 495 *~;
#X floatatom 209 84 5 0 0 1 Decay - -;
#N canvas 658 304 450 300 vol_env 0;
#X obj 57 154 vline~;
#X msg 56 107 0.5 \, 1 5 \, 0.5 60 5 \, 0 \$1 65;
#X obj 52 50 inlet decay;
#X obj 61 198 *~;
#X obj 61 250 outlet~;
#X connect 0 0 3 0;
#X connect 0 0 3 1;
#X connect 1 0 0 0;
#X connect 2 0 1 0;
#X connect 3 0 4 0;
#X restore 9 259 pd vol_env;
#X obj 90 93 f 250;
#N canvas 745 77 450 420 pitch_env 0;
#X obj 57 154 vline~;
#X obj 52 50 inlet decay;
#X obj 56 185 *~;
#X msg 56 107 1 \, 0.5 5 \, 0 \$1 65;
#X obj 54 216 *~ 80;
#X obj 52 245 +~ 29;
#X obj 52 271 mtof~;
#X text 160 264 Convert to a freq for the square wave;
#X text 131 209 Midi pitch - from 109 down to 29;
#X obj 49 301 outlet~;
#X connect 0 0 2 0;
#X connect 0 0 2 1;
#X connect 1 0 3 0;
#X connect 2 0 4 0;
#X connect 3 0 0 0;
#X connect 4 0 5 0;
#X connect 5 0 6 0;
#X connect 6 0 9 0;
#X restore 92 132 pd pitch_env;
#X floatatom 225 157 5 0 0 1 pitch_scale - -;
#X obj 93 186 *~ 1;
#N canvas 0 56 450 300 square 0;
#X obj 77 73 phasor~;
#X obj 77 104 expr~ $v1 > 0.5;
#X obj 78 142 *~ 2;
#X obj 76 171 -~ 1;
#X obj 76 33 inlet~;
#X obj 75 209 outlet~;
#X connect 0 0 1 0;
#X connect 1 0 2 0;
#X connect 2 0 3 0;
#X connect 3 0 5 0;
#X connect 4 0 0 0;
#X restore 112 296 pd square;
#X obj 129 415 vcf~ 0.5;
#X obj 253 293 *~ 1.5;
#X floatatom 295 253 5 0 0 0 filter_scale - -;
#X obj 321 352 osc~;
#X obj 323 327 *~ 1;
#X floatatom 363 292 5 0 0 1 sine_scale - -;
#X obj 211 54 inlet;
#X obj 222 128 inlet;
#X obj 294 223 inlet;
#X obj 362 264 inlet;
#X obj 49 536 outlet~;
#X obj 75 44 inlet;
#X obj 435 453 noise~;
#X obj 446 498 *~ 0.5;
#X obj 525 517 inlet;
#X connect 0 0 18 0;
#X connect 1 0 3 1;
#X connect 2 0 0 0;
#X connect 2 0 21 0;
#X connect 3 0 2 0;
#X connect 3 0 4 0;
#X connect 4 0 6 0;
#X connect 4 0 9 0;
#X connect 5 0 6 1;
#X connect 6 0 7 0;
#X connect 6 0 12 0;
#X connect 7 0 8 0;
#X connect 8 1 0 1;
#X connect 9 0 8 1;
#X connect 10 0 9 1;
#X connect 11 0 0 1;
#X connect 12 0 11 0;
#X connect 13 0 12 1;
#X connect 14 0 1 0;
#X connect 15 0 5 0;
#X connect 16 0 10 0;
#X connect 17 0 13 0;
#X connect 19 0 3 0;
#X connect 20 0 21 0;
#X connect 21 0 8 0;
#X connect 22 0 21 1;
#X restore 29 231 pd kick;
#X f 55;
#X floatatom 107 195 5 0 0 1 - - -;
#X floatatom 200 196 5 0 0 1 - - -;
#X floatatom 276 194 5 0 0 1 - - -;
#X floatatom 353 194 5 0 0 1 - - -;
#X obj 118 30 vsl 15 128 10 2000 0 0 empty kick_decay Decay 0 -9 0
10 -261682 -1 -1 1000 1;
#X obj 194 29 vsl 15 128 0.1 3 0 0 empty kick_pitch Pitch 0 -9 0 10
-262130 -1 -1 841 1;
#X obj 278 25 vsl 15 128 0.1 3 0 0 empty kick_filter Filter 0 -9 0
10 -204786 -1 -1 1731 1;
#X obj 351 30 vsl 15 128 0.1 3 0 0 empty kick_sine Sine 0 -9 0 10 -203904
-1 -1 6441 1;
#X obj 94 482 hsl 128 15 0 1 0 0 empty empty empty -2 -8 0 10 -228856
-1 -1 7500 1;
#X floatatom 415 189 5 0 0 1 - - -;
#X obj 413 26 vsl 15 128 0 6 0 0 empty kick_noise Noise 0 -9 0 10 -162280
-1 -1 6500 1;
#X obj 39 620 clip~ -1 1;
#X obj 280 557 metro 100;
#N canvas 0 56 960 565 midi_control 0;
#X obj 53 24 ctlin 21;
#X obj 58 86 + 20;
#X obj 58 121 s kick_decay;
#X obj 56 54 * 16;
#X obj 165 24 ctlin 22;
#X obj 167 53 * 0.2;
#X obj 163 123 s kick_pitch;
#X obj 163 91 + 0.1;
#X obj 274 52 * 0.2;
#X obj 270 90 + 0.1;
#X obj 272 23 ctlin 23;
#X obj 270 122 s kick_filter;
#X obj 427 52 * 0.2;
#X obj 423 90 + 0.1;
#X obj 425 23 ctlin 24;
#X obj 423 122 s kick_sine;
#X obj 569 24 ctlin 25;
#X obj 567 123 s kick_noise;
#X obj 571 53 * 0.07;
#X connect 0 0 3 0;
#X connect 1 0 2 0;
#X connect 3 0 1 0;
#X connect 4 0 5 0;
#X connect 5 0 7 0;
#X connect 7 0 6 0;
#X connect 8 0 9 0;
#X connect 9 0 11 0;
#X connect 10 0 8 0;
#X connect 12 0 13 0;
#X connect 13 0 15 0;
#X connect 14 0 12 0;
#X connect 16 0 18 0;
#X connect 18 0 17 0;
#X restore 278 644 pd midi_control;
#X msg 1106 40 \; kick_decay 250 \; kick_pitch 1 \; kick_filter 1.5
\; kick_sine 1 \;;
#N canvas 0 50 450 250 (subpatch) 0;
#X array \$0-steps 16 float 3;
#A 0 4 2 4 2 5 2 4 5 2 5 4 5 5 4 2 5;
#X coords 0 6 16 0 200 140 1 0 0;
#X restore 782 30 graph;
#X text 680 188 0=k \, 1=s \, 2=h \, 3=ks \, 4=kh \, 5=sh \, 6=ksh
;
#X obj 935 311 array set \$0-steps;
#X msg 931 258 0 2 3 4 5 6 0 1 2 3 4 5 6 0 1 2;
#N canvas 785 333 450 300 counter 0;
#X obj 41 25 inlet;
#X obj 105 26 inlet;
#X obj 40 88 t f b;
#X obj 43 60 tgl 15 0 empty empty empty 17 7 0 10 -261234 -1 -1 0 1
;
#X floatatom 109 66 5 0 0 1 BPM - -;
#X obj 42 146 metro 0.25 120 permin;
#X msg 112 100 tempo \$1 permin;
#X msg 90 173 0;
#X text 124 172 Reset;
#X obj 40 204 f;
#X obj 84 205 + 1;
#X obj 42 240 % 16;
#X obj 40 270 outlet;
#X connect 0 0 3 0;
#X connect 1 0 4 0;
#X connect 2 0 5 0;
#X connect 2 1 7 0;
#X connect 3 0 2 0;
#X connect 4 0 6 0;
#X connect 5 0 9 0;
#X connect 6 0 5 0;
#X connect 9 0 10 0;
#X connect 9 0 11 0;
#X connect 10 0 9 1;
#X connect 11 0 12 0;
#X restore 510 81 pd counter;
#X obj 509 40 tgl 15 0 empty empty empty 17 7 0 10 -262144 -1 -1 0
1;
#X floatatom 573 40 5 0 0 0 - - -;
#X obj 509 116 hradio 16 1 0 16 empty empty empty 0 -8 0 10 -262144
-1 -1 6;
#X obj 510 155 array get \$0-steps;
#X floatatom 507 192 5 0 0 0 - - -;
#X obj 507 220 + 0.5;
#X obj 508 251 int;
#X floatatom 510 281 5 0 0 0 - - -;
#X obj 509 315 select 0 1 2 3 4 5 6;
#X floatatom 598 447 5 0 1 0 - - -;
#X msg 962 345 4 10 4 10 5 10 2 1 2 1 4 0 5 10 2 1;
#X text 879 345 Amen break;
#X msg 968 386 4 0 2 10 5 10 2 0 2 10 4 0 5 10 6 10;
#X text 874 384 Kick groove;
#X text 890 423 Lay back;
#X msg 959 423 4 10 2 10 5 10 2 2 2 10 4 10 5 0 2 2;
#X text 907 458 Funky;
#X msg 959 458 4 2 4 2 5 2 4 5 2 5 4 5 5 4 2 5;
#X text 896 489 House;
#X msg 955 488 0 2 2 10 3 10 2 2 0 2 2 10 3 10 2 10;
#X text 847 512 UK Garage;
#X msg 918 517 0 1 2 2 1 0 2 1 10 10 4 0 1 2 2 2 0 10 2 10;
#X text 905 555 Rock;
#X msg 948 549 4 2 2 2 5 2 2 2 4 2 2 2 5 2 4 2;
#X obj 1178 293 array set \$0-steps;
#X obj 479 638 writesf~;
#X msg 562 627 stop;
#N canvas 0 56 856 547 snare_808 0;
#X obj 152 176 noise~;
#X obj 151 296 *~;
#X obj 232 91 f 250;
#N canvas 560 308 450 300 vol_env 0;
#X obj 32 23 inlet;
#X obj 36 100 vline~;
#X obj 40 147 *~;
#X msg 36 63 1 0.5 \, 0 \$1 0.5;
#X obj 35 186 outlet~;
#X connect 0 0 3 0;
#X connect 1 0 2 0;
#X connect 1 0 2 1;
#X connect 2 0 4 0;
#X connect 3 0 1 0;
#X restore 187 131 pd vol_env;
#X obj 132 216 hip~ 100;
#X obj 161 337 vcf~ 3;
#X obj 239 338 vcf~ 5;
#N canvas 786 378 450 300 cutoff_env 0;
#X obj 32 23 inlet;
#X obj 36 100 vline~;
#X obj 40 147 *~;
#X msg 36 63 1 0.5 \, 0 \$1 0.5;
#X obj 35 186 outlet~;
#X connect 0 0 3 0;
#X connect 1 0 2 0;
#X connect 1 0 2 1;
#X connect 2 0 4 0;
#X connect 3 0 1 0;
#X restore 273 219 pd cutoff_env;
#X obj 272 257 *~ 8000;
#X obj 273 290 +~ 100;
#X obj 345 259 *~ 5000;
#X obj 346 292 +~ 500;
#N canvas 547 270 450 300 FM_osc 0;
#X obj 13 117 osc~;
#X obj 18 169 *~;
#X obj 12 53 sig~ 150;
#X obj 15 88 +~;
#X obj 103 156 *~;
#X obj 102 15 osc~ 50;
#X obj 113 61 *~ 30;
#X obj 107 111 inlet~;
#X obj 44 217 outlet~;
#X connect 0 0 1 0;
#X connect 1 0 8 0;
#X connect 2 0 3 0;
#X connect 3 0 0 0;
#X connect 4 0 1 1;
#X connect 5 0 6 0;
#X connect 6 0 3 1;
#X connect 7 0 4 0;
#X restore 22 234 pd FM_osc;
#X obj 289 160 * 2;
#X floatatom 420 233 5 0 0 0 - - -;
#X obj 419 261 * 0.6;
#X obj 424 197 inlet;
#X obj 295 41 inlet;
#X obj 188 396 outlet~;
#X obj 207 36 inlet;
#X connect 0 0 4 0;
#X connect 1 0 5 0;
#X connect 1 0 6 0;
#X connect 2 0 3 0;
#X connect 2 0 13 0;
#X connect 3 0 1 1;
#X connect 3 0 12 0;
#X connect 4 0 1 0;
#X connect 5 0 18 0;
#X connect 6 0 18 0;
#X connect 7 0 8 0;
#X connect 7 0 10 0;
#X connect 8 0 9 0;
#X connect 9 0 5 1;
#X connect 10 0 11 0;
#X connect 11 0 6 1;
#X connect 12 0 5 0;
#X connect 12 0 6 0;
#X connect 13 0 7 0;
#X connect 14 0 15 0;
#X connect 14 0 8 1;
#X connect 15 0 10 1;
#X connect 16 0 14 0;
#X connect 17 0 2 1;
#X connect 19 0 2 0;
#X restore 635 533 pd snare_808;
#X f 31;
#X floatatom 713 484 5 0 0 1 - - -;
#X floatatom 798 485 5 0 0 1 - - -;
#X obj 715 317 vsl 15 128 10 3000 0 0 empty snare_decay Decay 0 -9
0 10 -204800 -1 -1 700 1;
#X obj 789 322 vsl 15 128 500 10000 0 0 empty snare_noise Noise 0 -9
0 10 -203904 -1 -1 7000 1;
#N canvas 369 196 711 450 cymbal 0;
#X obj 49 120 noise~;
#X obj 52 317 *~;
#X floatatom 259 178 5 0 0 0 - - -;
#N canvas 0 56 450 300 vol_env 0;
#X obj 71 143 vline~;
#X obj 116 50 f 250;
#X obj 118 16 inlet;
#X obj 75 185 outlet~;
#X obj 204 22 inlet;
#X msg 79 99 1 2 \, 0.4 \$1 2 \, 0 \$1 \$1;
#X connect 0 0 3 0;
#X connect 1 0 5 0;
#X connect 2 0 1 0;
#X connect 4 0 1 1;
#X connect 5 0 0 0;
#X restore 173 218 pd vol_env;
#N canvas 479 61 772 647 filters 0;
#X obj 66 9 inlet~;
#X obj 67 235 outlet~;
#X obj 66 53 biquad~ 0.638282 -0.176456 0.134544 0.269087 0.134544
;
#X text 386 275 FILTERS resonant lowpass at 7000Hz \, Q = 0.6 resonant
highpass at 6800Hz \, Q = 1.5 another one of these too resonant highpass
at 1200Hz \, Q = 1.5;
#X obj 66 94 biquad~ 0.88843 -0.568944 0.614344 -1.22869 0.614344;
#X obj 65 132 biquad~ 0.88843 -0.568944 0.614344 -1.22869 0.614344
;
#X obj 65 167 biquad~ 1.86507 -0.892661 0.939432 -1.87886 0.939432
;
#X connect 0 0 2 0;
#X connect 2 0 4 0;
#X connect 4 0 5 0;
#X connect 5 0 6 0;
#X connect 6 0 1 0;
#X restore 52 222 pd filters;
#N canvas 0 296 1162 300 six_pulse_oscs 0;
#X obj 28 149 expr~ $v1 > 0.55;
#X obj 27 119 phasor~;
#X obj 37 35 inlet;
#X text 81 37 freq;
#X obj 166 149 expr~ $v1 > 0.55;
#X obj 165 119 phasor~;
#X obj 301 149 expr~ $v1 > 0.55;
#X obj 300 119 phasor~;
#X obj 430 148 expr~ $v1 > 0.55;
#X obj 429 118 phasor~;
#X obj 567 145 expr~ $v1 > 0.55;
#X obj 566 115 phasor~;
#X obj 702 146 expr~ $v1 > 0.55;
#X obj 701 116 phasor~;
#X obj 171 79 * 1.342;
#X obj 303 78 * 1.2312;
#X obj 429 72 * 1.6532;
#X obj 565 72 * 1.8523;
#X obj 695 69 * 2.1523;
#X obj 196 227 *~;
#X floatatom 275 239 5 0 1 0 - - -;
#X obj 198 271 outlet~;
#X obj 338 226 loadbang;
#X msg 345 259 0.9;
#X connect 0 0 19 0;
#X connect 1 0 0 0;
#X connect 2 0 1 0;
#X connect 2 0 14 0;
#X connect 2 0 15 0;
#X connect 2 0 16 0;
#X connect 2 0 17 0;
#X connect 2 0 18 0;
#X connect 4 0 19 0;
#X connect 5 0 4 0;
#X connect 6 0 19 0;
#X connect 7 0 6 0;
#X connect 8 0 19 0;
#X connect 9 0 8 0;
#X connect 10 0 19 0;
#X connect 11 0 10 0;
#X connect 12 0 19 0;
#X connect 13 0 12 0;
#X connect 14 0 5 0;
#X connect 15 0 7 0;
#X connect 16 0 9 0;
#X connect 17 0 11 0;
#X connect 18 0 13 0;
#X connect 19 0 21 0;
#X connect 20 0 19 1;
#X connect 22 0 23 0;
#X connect 23 0 20 0;
#X restore 235 104 pd six_pulse_oscs;
#X floatatom 180 61 5 0 0 0 - - -;
#X obj 54 267 freeverb~;
#X obj 126 344 delwrite~ \$0-del 10;
#X obj 126 369 delread~ \$0-del 5;
#X obj 284 131 inlet;
#X text 297 175 dur;
#X obj 177 34 inlet;
#X text 234 39 pitch;
#X obj 151 174 inlet;
#X obj 56 402 outlet~;
#X obj 266 5 loadbang;
#X msg 289 33 220;
#X obj 46 176 *~;
#X floatatom 80 150 5 0 1 0 - - -;
#X obj 434 235 inlet;
#X connect 0 0 18 0;
#X connect 1 0 8 0;
#X connect 1 0 15 0;
#X connect 2 0 3 1;
#X connect 3 0 1 1;
#X connect 4 0 7 0;
#X connect 5 0 4 0;
#X connect 6 0 5 0;
#X connect 7 0 1 0;
#X connect 9 0 15 0;
#X connect 10 0 2 0;
#X connect 12 0 6 0;
#X connect 14 0 3 0;
#X connect 16 0 17 0;
#X connect 17 0 6 0;
#X connect 18 0 4 0;
#X connect 19 0 18 1;
#X connect 20 0 19 0;
#X restore 242 500 pd cymbal;
#X f 40;
#X floatatom 285 476 5 0 0 0 - - -;
#X floatatom 360 477 5 0 0 0 - - -;
#X floatatom 435 474 5 0 1 0 - - -;
#X obj 358 333 vsl 15 128 10 1000 1 0 empty hh_decay Decay 0 -9 0 10
-204786 -1 -1 3200 1;
#X obj 288 340 vsl 15 128 110 1100 1 0 empty hh_pitch Pitch 0 -9 0
10 -262130 -1 -1 7500 1;
#X obj 436 339 vsl 15 128 0.01 1 1 0 empty hh_noise Noise 0 -9 0 10
-203904 -1 -1 4300 1;
#X obj 61 567 *~ 0.5;
#X obj 365 524 hsl 128 15 0 2 0 0 empty empty empty -2 -8 0 10 -228856
-1 -1 5400 1;
#X obj 88 592 *~ 0.5;
#X obj 647 559 hsl 128 15 0 1 0 0 empty empty empty -2 -8 0 10 -228856
-1 -1 7900 1;
#X msg 454 592 open drum_station_seq.wav \, start;
#X connect 1 0 18 0;
#X connect 4 0 17 0;
#X connect 5 0 4 0;
#X connect 6 0 5 1;
#X connect 7 0 5 2;
#X connect 8 0 5 3;
#X connect 9 0 5 4;
#X connect 10 0 6 0;
#X connect 11 0 7 0;
#X connect 12 0 8 0;
#X connect 13 0 9 0;
#X connect 14 0 4 1;
#X connect 15 0 5 5;
#X connect 16 0 15 0;
#X connect 17 0 3 0;
#X connect 17 0 3 1;
#X connect 17 0 2 0;
#X connect 17 0 51 0;
#X connect 18 0 2 0;
#X connect 24 0 23 0;
#X connect 25 0 28 0;
#X connect 26 0 25 0;
#X connect 27 0 25 1;
#X connect 28 0 29 0;
#X connect 29 0 30 0;
#X connect 30 0 31 0;
#X connect 31 0 32 0;
#X connect 32 0 33 0;
#X connect 33 0 34 0;
#X connect 34 0 5 0;
#X connect 34 1 53 0;
#X connect 34 2 58 0;
#X connect 34 3 5 0;
#X connect 34 3 53 0;
#X connect 34 4 5 0;
#X connect 34 4 58 0;
#X connect 34 5 53 0;
#X connect 34 5 58 0;
#X connect 34 6 5 0;
#X connect 34 6 53 0;
#X connect 34 6 58 0;
#X connect 36 0 50 0;
#X connect 38 0 50 0;
#X connect 41 0 50 0;
#X connect 43 0 50 0;
#X connect 45 0 50 0;
#X connect 47 0 50 0;
#X connect 49 0 50 0;
#X connect 53 0 67 0;
#X connect 54 0 53 1;
#X connect 55 0 53 2;
#X connect 56 0 54 0;
#X connect 57 0 55 0;
#X connect 58 0 65 0;
#X connect 59 0 58 1;
#X connect 60 0 58 2;
#X connect 61 0 58 3;
#X connect 62 0 60 0;
#X connect 63 0 59 0;
#X connect 64 0 61 0;
#X connect 65 0 17 0;
#X connect 66 0 65 1;
#X connect 67 0 17 0;
#X connect 68 0 67 1;
#X connect 69 0 52 0;
#X connect 69 0 51 0;
