#N canvas 0 56 1280 703 12;
#X obj 60 40 tgl 15 0 empty empty empty 17 7 0 10 -262144 -1 -1 0 1
;
#X obj 58 123 f;
#X obj 101 122 + 1;
#X obj 14 67 == 0;
#X obj 62 286 *;
#X floatatom 143 214 5 0 16 1 Notes - -;
#X obj 63 406 <;
#X obj 63 440 select 1;
#X obj 65 479 bng 15 250 50 0 empty empty empty 17 7 0 10 -262144 -1
-1;
#X obj 118 480 bng 15 250 50 0 empty empty rests 17 7 0 10 -262144
-1 -1;
#X obj 65 511 f;
#X obj 59 218 t f f;
#X floatatom 65 542 5 0 0 0 - - -;
#X floatatom 53 338 5 0 0 0 - - -;
#N canvas 68 56 450 651 clave 0;
#X obj 82 16 inlet;
#X obj 82 50 t b f;
#X obj 81 87 sel 0;
#X obj 76 230 osc~;
#X floatatom 79 157 5 0 0 0 - - -;
#X obj 136 242 vline~;
#X obj 87 330 *~;
#X obj 72 576 dac~;
#X obj 105 539 *~;
#X obj 57 539 *~;
#X obj 132 593 throw~ left;
#X obj 232 594 throw~ right;
#X msg 140 125 700;
#X msg 79 124 500;
#X text 57 377 Stereo reverb;
#X obj 287 376 hsl 128 15 0 1 0 0 empty empty empty -2 -8 0 10 -262144
-1 -1 2700 1;
#X msg 153 192 0.5 10 \, 0 70 10;
#X obj 66 402 rev2~ 60 70 300 20;
#X connect 0 0 1 0;
#X connect 1 0 16 0;
#X connect 1 1 2 0;
#X connect 2 0 13 0;
#X connect 2 1 12 0;
#X connect 3 0 6 0;
#X connect 4 0 3 0;
#X connect 5 0 6 1;
#X connect 6 0 9 0;
#X connect 6 0 8 0;
#X connect 6 0 17 0;
#X connect 8 0 7 1;
#X connect 8 0 11 0;
#X connect 9 0 7 0;
#X connect 9 0 10 0;
#X connect 12 0 4 0;
#X connect 13 0 4 0;
#X connect 15 0 8 1;
#X connect 15 0 9 1;
#X connect 16 0 5 0;
#X connect 17 0 9 0;
#X connect 17 1 8 0;
#X restore 64 594 pd clave;
#X obj 274 195 *;
#X floatatom 355 123 5 0 16 1 Notes - -;
#X obj 275 315 <;
#X obj 275 349 select 1;
#X obj 277 388 bng 15 250 50 0 empty empty empty 17 7 0 10 -262144
-1 -1;
#X obj 330 389 bng 15 250 50 0 empty empty rests 17 7 0 10 -262144
-1 -1;
#X obj 277 420 f;
#X obj 271 127 t f f;
#X floatatom 277 451 5 0 0 0 - - -;
#X floatatom 265 247 5 0 0 0 - - -;
#N canvas 0 56 1280 703 cowbell 0;
#X obj 82 16 inlet;
#X obj 82 50 t b f;
#X obj 81 87 sel 0;
#X obj 80 190 osc~;
#X floatatom 79 157 5 0 0 0 - - -;
#X obj 82 237 *~;
#X obj 74 280 dac~;
#X obj 140 202 vline~;
#X msg 79 124 300;
#X obj 134 286 throw~ left;
#X obj 234 287 throw~ right;
#X msg 152 169 0.2 5 \, 0 200 10;
#X connect 0 0 1 0;
#X connect 1 0 11 0;
#X connect 1 1 2 0;
#X connect 2 0 8 0;
#X connect 3 0 5 0;
#X connect 4 0 3 0;
#X connect 5 0 6 0;
#X connect 5 0 6 1;
#X connect 5 0 9 0;
#X connect 5 0 10 0;
#X connect 7 0 5 1;
#X connect 8 0 4 0;
#X connect 11 0 7 0;
#X restore 276 503 pd cowbell;
#X obj 525 187 *;
#X floatatom 606 115 5 0 16 1 Notes - -;
#X obj 526 307 <;
#X obj 526 341 select 1;
#X obj 528 380 bng 15 250 50 0 empty empty empty 17 7 0 10 -262144
-1 -1;
#X obj 581 381 bng 15 250 50 0 empty empty rests 17 7 0 10 -262144
-1 -1;
#X obj 528 412 f;
#X obj 522 119 t f f;
#X floatatom 528 443 5 0 0 0 - - -;
#X floatatom 516 239 5 0 0 0 - - -;
#N canvas 0 56 1280 703 bell 0;
#X obj 82 16 inlet;
#X obj 82 50 t b f;
#X obj 81 87 sel 0;
#X obj 80 190 osc~;
#X floatatom 79 157 5 0 0 0 - - -;
#X obj 87 330 *~;
#X obj 80 557 dac~;
#X obj 140 202 vline~;
#X msg 79 124 1400;
#X text 65 411 Stereo reverb;
#X floatatom 147 386 5 0 0 0 - - -;
#X floatatom 207 409 5 0 0 0 - - -;
#X text 219 390 damp hf;
#X obj 113 520 *~;
#X obj 65 520 *~;
#X obj 295 410 hsl 128 15 0 1 0 0 empty empty empty -2 -8 0 10 -262144
-1 -1 3100 1;
#X obj 61 436 rev2~ 70 90 3000 20;
#X obj 140 574 throw~ left;
#X obj 240 575 throw~ right;
#X msg 152 169 0.5 5 \, 0 100 10;
#X connect 0 0 1 0;
#X connect 1 0 19 0;
#X connect 1 1 2 0;
#X connect 2 0 8 0;
#X connect 3 0 5 0;
#X connect 4 0 3 0;
#X connect 5 0 14 0;
#X connect 5 0 13 0;
#X connect 5 0 16 0;
#X connect 7 0 5 1;
#X connect 8 0 4 0;
#X connect 10 0 16 2;
#X connect 11 0 16 4;
#X connect 13 0 6 1;
#X connect 13 0 18 0;
#X connect 14 0 6 0;
#X connect 14 0 17 0;
#X connect 15 0 14 1;
#X connect 15 0 13 1;
#X connect 16 0 14 0;
#X connect 16 1 13 0;
#X connect 19 0 7 0;
#X restore 527 495 pd bell;
#X obj 274 161 + 3;
#X obj 750 174 *;
#X floatatom 831 102 5 0 16 1 Notes - -;
#X obj 752 261 % 16;
#X obj 751 294 <;
#X obj 751 328 select 1;
#X obj 753 367 bng 15 250 50 0 empty empty empty 17 7 0 10 -262144
-1 -1;
#X obj 806 368 bng 15 250 50 0 empty empty rests 17 7 0 10 -262144
-1 -1;
#X obj 753 399 f;
#X obj 747 106 t f f;
#X floatatom 753 430 5 0 0 0 - - -;
#X floatatom 741 226 5 0 0 0 - - -;
#N canvas 0 56 1280 703 kick 0;
#X obj 82 16 inlet;
#X obj 82 50 t b f;
#X obj 81 87 sel 0;
#X obj 80 190 osc~;
#X floatatom 79 157 5 0 0 0 - - -;
#X obj 82 237 *~;
#X obj 74 280 dac~;
#X obj 140 202 vline~;
#X obj 139 286 throw~ left;
#X obj 239 287 throw~ right;
#X msg 79 124 90;
#X msg 152 169 0.1 5 \, 0 100 5;
#X connect 0 0 1 0;
#X connect 1 0 11 0;
#X connect 1 1 2 0;
#X connect 2 0 10 0;
#X connect 3 0 5 0;
#X connect 4 0 3 0;
#X connect 5 0 6 0;
#X connect 5 0 6 1;
#X connect 5 0 8 0;
#X connect 5 0 9 0;
#X connect 7 0 5 1;
#X connect 10 0 4 0;
#X connect 11 0 7 0;
#X restore 752 482 pd kick;
#X obj 951 178 *;
#X floatatom 1032 106 5 0 16 1 Notes - -;
#X obj 952 298 <;
#X obj 952 332 select 1;
#X obj 954 371 bng 15 250 50 0 empty empty empty 17 7 0 10 -262144
-1 -1;
#X obj 1007 372 bng 15 250 50 0 empty empty rests 17 7 0 10 -262144
-1 -1;
#X obj 954 403 f;
#X obj 948 110 t f f;
#X floatatom 954 434 5 0 0 0 - - -;
#X floatatom 942 230 5 0 0 0 - - -;
#N canvas 0 56 1280 703 snare 0;
#X obj 82 16 inlet;
#X obj 82 50 t b f;
#X obj 81 87 sel 0;
#X floatatom 79 157 5 0 0 0 - - -;
#X obj 87 299 *~;
#X obj 79 342 dac~;
#X obj 151 235 vline~;
#X msg 79 124 100;
#X obj 80 190 noise~;
#X obj 68 245 lop~ 2000;
#X obj 138 344 throw~ left;
#X obj 238 345 throw~ right;
#X obj 145 262 pow~ 4;
#X msg 152 169 0.5 5 \, 0 100 5;
#X connect 0 0 1 0;
#X connect 1 0 13 0;
#X connect 1 1 2 0;
#X connect 2 0 7 0;
#X connect 3 0 8 0;
#X connect 4 0 5 0;
#X connect 4 0 5 1;
#X connect 4 0 10 0;
#X connect 4 0 11 0;
#X connect 6 0 12 0;
#X connect 7 0 3 0;
#X connect 8 0 9 0;
#X connect 9 0 4 0;
#X connect 12 0 4 1;
#X connect 13 0 6 0;
#X restore 953 486 pd snare;
#X obj 951 144 + 2;
#X obj 1111 200 *;
#X floatatom 1192 128 5 0 16 1 Notes - -;
#X obj 1113 287 % 16;
#X obj 1112 320 <;
#X obj 1112 354 select 1;
#X obj 1114 393 bng 15 250 50 0 empty empty empty 17 7 0 10 -262144
-1 -1;
#X obj 1167 394 bng 15 250 50 0 empty empty rests 17 7 0 10 -262144
-1 -1;
#X obj 1114 425 f;
#X obj 1108 132 t f f;
#X floatatom 1114 456 5 0 0 0 - - -;
#X floatatom 1102 252 5 0 0 0 - - -;
#X obj 1111 166 + 2;
#N canvas 0 56 1280 703 snare2 0;
#X obj 82 16 inlet;
#X obj 82 50 t b f;
#X obj 81 87 sel 0;
#X floatatom 79 157 5 0 0 0 - - -;
#X obj 71 312 *~;
#X obj 63 355 dac~;
#X obj 178 218 vline~;
#X msg 79 124 100;
#X obj 80 190 noise~;
#X obj 133 360 throw~ left;
#X obj 233 361 throw~ right;
#X obj 155 258 pow~ 4;
#X msg 152 169 0.6 10 \, 0 120 10;
#X obj 57 245 lop~ 3000;
#X connect 0 0 1 0;
#X connect 1 0 12 0;
#X connect 1 1 2 0;
#X connect 2 0 7 0;
#X connect 3 0 8 0;
#X connect 4 0 5 0;
#X connect 4 0 5 1;
#X connect 4 0 9 0;
#X connect 4 0 10 0;
#X connect 6 0 11 0;
#X connect 7 0 3 0;
#X connect 8 0 13 0;
#X connect 11 0 4 1;
#X connect 12 0 6 0;
#X connect 13 0 4 0;
#X restore 1113 508 pd snare2;
#X obj 437 619 writesf~;
#X msg 457 588 stop;
#X obj 196 580 catch~ left;
#X obj 291 580 catch~ right;
#X obj 58 159 % 16;
#X msg 394 557 open euclid.wav \, start;
#X obj 57 69 metro 185;
#X obj 64 373 % 10;
#X obj 515 273 % 16;
#X obj 953 265 % 16;
#X obj 62 252 + 1;
#X obj 750 140 + 0;
#X obj 276 282 % 16;
#X obj 525 153 + 1;
#X connect 0 0 3 0;
#X connect 0 0 81 0;
#X connect 1 0 2 0;
#X connect 1 0 79 0;
#X connect 2 0 1 1;
#X connect 3 0 1 1;
#X connect 4 0 13 0;
#X connect 5 0 4 1;
#X connect 5 0 6 1;
#X connect 6 0 7 0;
#X connect 7 0 8 0;
#X connect 7 1 9 0;
#X connect 8 0 10 0;
#X connect 10 0 12 0;
#X connect 11 0 85 0;
#X connect 11 1 10 1;
#X connect 12 0 14 0;
#X connect 13 0 82 0;
#X connect 15 0 24 0;
#X connect 16 0 15 1;
#X connect 16 0 17 1;
#X connect 17 0 18 0;
#X connect 18 0 19 0;
#X connect 18 1 20 0;
#X connect 19 0 21 0;
#X connect 21 0 23 0;
#X connect 22 0 37 0;
#X connect 22 1 21 1;
#X connect 23 0 25 0;
#X connect 24 0 87 0;
#X connect 26 0 35 0;
#X connect 27 0 26 1;
#X connect 27 0 28 1;
#X connect 28 0 29 0;
#X connect 29 0 30 0;
#X connect 29 1 31 0;
#X connect 30 0 32 0;
#X connect 32 0 34 0;
#X connect 33 0 88 0;
#X connect 33 1 32 1;
#X connect 34 0 36 0;
#X connect 35 0 83 0;
#X connect 37 0 15 0;
#X connect 38 0 48 0;
#X connect 39 0 38 1;
#X connect 39 0 41 1;
#X connect 40 0 41 0;
#X connect 41 0 42 0;
#X connect 42 0 43 0;
#X connect 42 1 44 0;
#X connect 43 0 45 0;
#X connect 45 0 47 0;
#X connect 46 0 86 0;
#X connect 46 1 45 1;
#X connect 47 0 49 0;
#X connect 48 0 40 0;
#X connect 50 0 59 0;
#X connect 51 0 50 1;
#X connect 51 0 52 1;
#X connect 52 0 53 0;
#X connect 53 0 54 0;
#X connect 53 1 55 0;
#X connect 54 0 56 0;
#X connect 56 0 58 0;
#X connect 57 0 61 0;
#X connect 57 1 56 1;
#X connect 58 0 60 0;
#X connect 59 0 84 0;
#X connect 61 0 50 0;
#X connect 62 0 72 0;
#X connect 63 0 62 1;
#X connect 63 0 65 1;
#X connect 64 0 65 0;
#X connect 65 0 66 0;
#X connect 66 0 67 0;
#X connect 66 1 68 0;
#X connect 67 0 69 0;
#X connect 69 0 71 0;
#X connect 70 0 73 0;
#X connect 70 1 69 1;
#X connect 71 0 74 0;
#X connect 72 0 64 0;
#X connect 73 0 62 0;
#X connect 76 0 75 0;
#X connect 77 0 75 0;
#X connect 78 0 75 0;
#X connect 79 0 57 0;
#X connect 79 0 11 0;
#X connect 79 0 33 0;
#X connect 79 0 46 0;
#X connect 79 0 22 0;
#X connect 79 0 70 0;
#X connect 80 0 75 0;
#X connect 81 0 1 0;
#X connect 82 0 6 0;
#X connect 83 0 28 0;
#X connect 84 0 52 0;
#X connect 85 0 4 0;
#X connect 86 0 38 0;
#X connect 87 0 17 0;
#X connect 88 0 26 0;
