#N canvas 615 225 563 402 12;
#X obj 59 176 pack f f f;
#X msg 59 208 \$1 \, \$2 \$3;
#X text 135 207 start \, end dur;
#X obj 65 234 vline~;
#X obj 59 265 tabread4~ grainData;
#X obj 61 322 *~;
#X obj 55 113 t f f;
#X floatatom 53 84 5 0 0 0 - - -;
#X obj 101 142 +;
#X floatatom 124 74 5 0 0 2 Dur - -;
#X obj 128 107 * 44.1;
#X floatatom 186 77 5 1 2 2 Speed - -;
#X obj 171 151 / 1;
#X obj 215 115 t b f;
#X obj 50 35 inlet;
#X obj 124 28 r g-dur;
#X obj 191 20 r g-speed;
#X obj 62 362 outlet~;
#X obj 153 328 vline~;
#X msg 160 298 1 20 \, 0 20 \$1;
#X obj 228 261 f;
#X obj 262 235 - 20;
#X obj 232 230 bng 15 250 50 0 empty empty empty 17 7 0 10 -262144
-1 -1;
#X connect 0 0 1 0;
#X connect 1 0 3 0;
#X connect 1 0 22 0;
#X connect 3 0 4 0;
#X connect 4 0 5 0;
#X connect 5 0 17 0;
#X connect 6 0 0 0;
#X connect 6 1 8 0;
#X connect 7 0 6 0;
#X connect 8 0 0 1;
#X connect 9 0 10 0;
#X connect 9 0 12 0;
#X connect 10 0 8 1;
#X connect 11 0 13 0;
#X connect 12 0 0 2;
#X connect 12 0 20 0;
#X connect 13 0 12 0;
#X connect 13 1 12 1;
#X connect 14 0 7 0;
#X connect 15 0 9 0;
#X connect 16 0 11 0;
#X connect 18 0 5 1;
#X connect 19 0 18 0;
#X connect 20 0 19 0;
#X connect 21 0 20 1;
#X connect 22 0 20 0;
