#N canvas 0 56 1280 703 12;
#X obj 25 27 bng 15 250 50 0 empty empty read_file 17 7 0 10 -204800
-1 -1;
#X obj 25 56 openpanel;
#X msg 25 90 read -resize \$1 grainData;
#X obj 25 122 soundfiler;
#X floatatom 26 153 12 0 0 0 - - -;
#N canvas 0 50 450 250 (subpatch) 0;
#X array grainData 1.31305e+06 float 2;
#X coords 0 1 1.31305e+06 -1 200 140 1;
#X restore 229 21 graph;
#X obj 27 504 dac~;
#X obj 31 454 *~;
#X obj 104 454 hsl 128 15 0 1 0 0 empty empty Volume -2 -8 0 10 -262130
-1 -1 12700 1;
#X obj 29 407 clone grainer 16;
#X floatatom 198 286 5 0 0 0 - - -;
#X floatatom 268 289 5 1 2 0 - - -;
#X obj 208 320 s g-dur;
#X obj 277 322 s g-speed;
#X msg 25 370 next \$1;
#X obj 85 213 phasor~;
#X obj 93 247 *~;
#X obj 112 275 snapshot~;
#X obj 9 265 metro 100;
#X obj 11 225 tgl 15 0 empty empty empty 17 7 0 10 -262144 -1 -1 1
1;
#X obj 93 177 expr 44100 / $f1;
#X obj 202 247 random 200;
#X obj 18 307 t b b;
#X obj 145 330 +;
#X msg 275 210 200000;
#X connect 0 0 1 0;
#X connect 1 0 2 0;
#X connect 2 0 3 0;
#X connect 3 0 4 0;
#X connect 4 0 16 1;
#X connect 4 0 20 0;
#X connect 7 0 6 0;
#X connect 7 0 6 1;
#X connect 8 0 7 1;
#X connect 9 0 7 0;
#X connect 10 0 12 0;
#X connect 11 0 13 0;
#X connect 14 0 9 0;
#X connect 15 0 16 0;
#X connect 16 0 17 0;
#X connect 17 0 23 0;
#X connect 18 0 17 0;
#X connect 18 0 22 0;
#X connect 19 0 18 0;
#X connect 20 0 15 0;
#X connect 21 0 23 1;
#X connect 22 1 21 0;
#X connect 22 1 17 0;
#X connect 24 0 21 1;
