#N canvas 282 81 998 679 12;
#X obj 61 325 *~ 0.25;
#X obj 68 422 dac~;
#N canvas 0 56 450 300 filter_help 0;
#N canvas 868 536 706 476 calculate_biquad_coefficients 0;
#X obj 131 15 inlet;
#X obj 353 10 inlet;
#X obj 486 98 expr pow(10 \, abs(1/20));
#X text 631 98 V;
#X obj 141 377 print;
#X obj 380 67 f 1;
#N canvas 1009 506 605 495 lowpass 0;
#X obj 37 37 inlet;
#X obj 57 98 expr tan(3.14159265 * $f1);
#X text 223 94 K;
#X obj 297 32 t f f;
#X text 28 154 norm;
#X obj 46 312 pack f f f f f;
#X obj 62 124 t f f;
#X text 103 226 lp_a0;
#X obj 69 267 * 2;
#X obj 49 225 t f f f;
#X obj 63 174 t f f;
#X obj 196 202 expr 2 * $f1 * (($f2*$f2) - 1);
#X obj 299 9 inlet;
#X obj 46 333 outlet;
#X obj 214 244 expr (1 - ($f2 / $f3) + ($f2*$f2)) * $f1;
#X obj 63 153 expr 1 / (1 + ($f1/$f2) + ($f1*$f1));
#X obj 49 204 expr $f2 * $f2 * $f1;
#X connect 0 0 1 0;
#X connect 1 0 6 0;
#X connect 3 0 14 2;
#X connect 3 0 15 1;
#X connect 5 0 13 0;
#X connect 6 0 15 0;
#X connect 6 1 11 1;
#X connect 6 1 14 1;
#X connect 6 1 16 1;
#X connect 8 0 5 1;
#X connect 9 0 5 0;
#X connect 9 1 8 0;
#X connect 9 2 5 2;
#X connect 10 0 16 0;
#X connect 10 1 11 0;
#X connect 10 1 14 0;
#X connect 11 0 5 3;
#X connect 12 0 3 0;
#X connect 14 0 5 4;
#X connect 15 0 10 0;
#X connect 16 0 9 0;
#X restore 172 173 pd lowpass;
#X obj 443 7 loadbang;
#X obj 185 60 loadbang;
#X obj 174 311 outlet;
#X obj 353 31 t b f;
#X obj 131 36 / 44100;
#X text 72 162 a0 a1 a2 b1 b2;
#N canvas 0 23 450 300 convert_to_pd_biquad 0;
#X obj 24 18 inlet;
#X obj 52 69 unpack f f f f f;
#X obj 121 112 * -1;
#X obj 155 113 * -1;
#X obj 61 175 pack f f f f f;
#X obj 49 141 f 0;
#X obj 24 39 t b l;
#X obj 61 196 outlet;
#X connect 0 0 6 0;
#X connect 1 0 4 2;
#X connect 1 1 4 3;
#X connect 1 2 4 4;
#X connect 1 3 2 0;
#X connect 1 4 3 0;
#X connect 2 0 5 1;
#X connect 3 0 4 1;
#X connect 4 0 7 0;
#X connect 5 0 4 0;
#X connect 6 0 5 0;
#X connect 6 1 1 0;
#X restore 172 194 pd convert_to_pd_biquad;
#X obj 170 103 f 0.01;
#X text 68 216 -b1 -b2 a0 a1 a2;
#N canvas 0 23 450 300 convert_to_pd_biquad 0;
#X obj 24 18 inlet;
#X obj 52 69 unpack f f f f f;
#X obj 121 112 * -1;
#X obj 155 113 * -1;
#X obj 61 175 pack f f f f f;
#X obj 49 141 f 0;
#X obj 24 39 t b l;
#X obj 61 196 outlet;
#X connect 0 0 6 0;
#X connect 1 0 4 2;
#X connect 1 1 4 3;
#X connect 1 2 4 4;
#X connect 1 3 2 0;
#X connect 1 4 3 0;
#X connect 2 0 5 1;
#X connect 3 0 4 1;
#X connect 4 0 7 0;
#X connect 5 0 4 0;
#X connect 6 0 5 0;
#X connect 6 1 1 0;
#X restore 348 196 pd convert_to_pd_biquad;
#N canvas 1009 506 605 495 highpass 0;
#X obj 37 37 inlet;
#X obj 57 98 expr tan(3.14159265 * $f1);
#X text 223 94 K;
#X obj 297 32 t f f;
#X text 28 154 norm;
#X obj 46 312 pack f f f f f;
#X obj 62 124 t f f;
#X obj 49 225 t f f f, f 12;
#X obj 63 174 t f f;
#X obj 196 202 expr 2 * $f1 * (($f2*$f2) - 1);
#X obj 299 9 inlet;
#X obj 46 333 outlet;
#X obj 214 244 expr (1 - ($f2 / $f3) + ($f2*$f2)) * $f1;
#X obj 63 153 expr 1 / (1 + ($f1/$f2) + ($f1*$f1));
#X obj 69 267 * -2;
#X connect 0 0 1 0;
#X connect 1 0 6 0;
#X connect 3 0 12 2;
#X connect 3 0 13 1;
#X connect 5 0 11 0;
#X connect 6 0 13 0;
#X connect 6 1 9 1;
#X connect 6 1 12 1;
#X connect 7 0 5 0;
#X connect 7 1 14 0;
#X connect 7 2 5 2;
#X connect 8 0 7 0;
#X connect 8 1 9 0;
#X connect 8 1 12 0;
#X connect 9 0 5 3;
#X connect 10 0 3 0;
#X connect 12 0 5 4;
#X connect 13 0 8 0;
#X connect 14 0 5 1;
#X restore 348 175 pd highpass;
#X obj 170 15 samplerate~;
#X obj 347 309 outlet;
#X obj 527 308 outlet;
#N canvas 1003 702 450 300 convert_to_pd_biquad 0;
#X obj 24 18 inlet;
#X obj 52 69 unpack f f f f f;
#X obj 121 112 * -1;
#X obj 155 113 * -1;
#X obj 61 175 pack f f f f f;
#X obj 49 141 f 0;
#X obj 24 39 t b l;
#X obj 61 196 outlet;
#X connect 0 0 6 0;
#X connect 1 0 4 2;
#X connect 1 1 4 3;
#X connect 1 2 4 4;
#X connect 1 3 2 0;
#X connect 1 4 3 0;
#X connect 2 0 5 1;
#X connect 3 0 4 1;
#X connect 4 0 7 0;
#X connect 5 0 4 0;
#X connect 6 0 5 0;
#X connect 6 1 1 0;
#X restore 522 200 pd convert_to_pd_biquad;
#N canvas 1009 506 605 495 bandpass 0;
#X obj 37 37 inlet;
#X obj 57 98 expr tan(3.14159265 * $f1);
#X text 223 94 K;
#X obj 297 32 t f f;
#X text 28 154 norm;
#X obj 62 124 t f f;
#X obj 49 225 t f f f;
#X obj 63 174 t f f;
#X obj 196 202 expr 2 * $f1 * (($f2*$f2) - 1);
#X obj 299 9 inlet;
#X obj 46 333 outlet;
#X obj 214 244 expr (1 - ($f2 / $f3) + ($f2*$f2)) * $f1;
#X obj 63 153 expr 1 / (1 + ($f1/$f2) + ($f1*$f1));
#X obj 49 204 expr $f2 / ($f3 * $f1);
#X obj 46 312 pack f 0 f f f;
#X obj 88 269 * -1;
#X connect 0 0 1 0;
#X connect 1 0 5 0;
#X connect 3 0 11 2;
#X connect 3 0 12 1;
#X connect 3 0 13 2;
#X connect 5 0 12 0;
#X connect 5 1 8 1;
#X connect 5 1 11 1;
#X connect 5 1 13 1;
#X connect 6 0 14 0;
#X connect 6 2 15 0;
#X connect 7 0 13 0;
#X connect 7 1 8 0;
#X connect 7 1 11 0;
#X connect 8 0 14 3;
#X connect 9 0 3 0;
#X connect 11 0 14 4;
#X connect 12 0 7 0;
#X connect 13 0 6 0;
#X connect 14 0 10 0;
#X connect 15 0 14 2;
#X restore 523 177 pd bandpass;
#X connect 0 0 11 0;
#X connect 1 0 10 0;
#X connect 5 0 6 1;
#X connect 5 0 17 1;
#X connect 5 0 22 1;
#X connect 6 0 13 0;
#X connect 7 0 5 0;
#X connect 8 0 14 0;
#X connect 10 0 14 0;
#X connect 10 1 5 0;
#X connect 11 0 14 0;
#X connect 13 0 9 0;
#X connect 14 0 6 0;
#X connect 14 0 17 0;
#X connect 14 0 22 0;
#X connect 16 0 19 0;
#X connect 17 0 16 0;
#X connect 18 0 11 1;
#X connect 21 0 20 0;
#X connect 22 0 21 0;
#X restore 20 55 pd calculate_biquad_coefficients;
#X floatatom 20 31 5 0 0 1 cutoff - -;
#X floatatom 214 19 5 0 0 1 resonance - -;
#X obj 16 95 print lowpass;
#X obj 116 102 print highpass;
#X obj 232 117 print bandpass;
#X connect 0 0 3 0;
#X connect 0 1 4 0;
#X connect 0 2 5 0;
#X connect 1 0 0 0;
#X connect 2 0 0 1;
#X restore 459 334 pd filter_help;
#N canvas 437 310 711 450 cymbal 1;
#X obj 49 120 noise~;
#X obj 52 317 *~;
#X floatatom 259 178 5 0 0 0 - - -;
#N canvas 0 56 450 300 vol_env 1;
#X obj 71 143 vline~;
#X obj 116 50 f 250;
#X obj 118 16 inlet;
#X obj 75 185 outlet~;
#X obj 204 22 inlet;
#X msg 79 99 1 2 \, 0.4 \$1 2 \, 0 \$1 \$1;
#X connect 0 0 3 0;
#X connect 1 0 5 0;
#X connect 2 0 1 0;
#X connect 4 0 1 1;
#X connect 5 0 0 0;
#X restore 173 218 pd vol_env;
#N canvas 479 61 772 647 filters 0;
#X obj 66 9 inlet~;
#X obj 67 235 outlet~;
#X obj 66 53 biquad~ 0.638282 -0.176456 0.134544 0.269087 0.134544
;
#X text 386 275 FILTERS resonant lowpass at 7000Hz \, Q = 0.6 resonant
highpass at 6800Hz \, Q = 1.5 another one of these too resonant highpass
at 1200Hz \, Q = 1.5;
#X obj 66 94 biquad~ 0.88843 -0.568944 0.614344 -1.22869 0.614344;
#X obj 65 132 biquad~ 0.88843 -0.568944 0.614344 -1.22869 0.614344
;
#X obj 65 167 biquad~ 1.86507 -0.892661 0.939432 -1.87886 0.939432
;
#X connect 0 0 2 0;
#X connect 2 0 4 0;
#X connect 4 0 5 0;
#X connect 5 0 6 0;
#X connect 6 0 1 0;
#X restore 52 222 pd filters;
#N canvas 0 296 1162 300 six_pulse_oscs 0;
#X obj 28 149 expr~ $v1 > 0.55;
#X obj 27 119 phasor~;
#X obj 37 35 inlet;
#X text 81 37 freq;
#X obj 166 149 expr~ $v1 > 0.55;
#X obj 165 119 phasor~;
#X obj 301 149 expr~ $v1 > 0.55;
#X obj 300 119 phasor~;
#X obj 430 148 expr~ $v1 > 0.55;
#X obj 429 118 phasor~;
#X obj 567 145 expr~ $v1 > 0.55;
#X obj 566 115 phasor~;
#X obj 702 146 expr~ $v1 > 0.55;
#X obj 701 116 phasor~;
#X obj 171 79 * 1.342;
#X obj 303 78 * 1.2312;
#X obj 429 72 * 1.6532;
#X obj 565 72 * 1.8523;
#X obj 695 69 * 2.1523;
#X obj 196 227 *~;
#X floatatom 275 239 5 0 1 0 - - -;
#X obj 198 271 outlet~;
#X obj 338 226 loadbang;
#X msg 345 259 0.9;
#X connect 0 0 19 0;
#X connect 1 0 0 0;
#X connect 2 0 1 0;
#X connect 2 0 14 0;
#X connect 2 0 15 0;
#X connect 2 0 16 0;
#X connect 2 0 17 0;
#X connect 2 0 18 0;
#X connect 4 0 19 0;
#X connect 5 0 4 0;
#X connect 6 0 19 0;
#X connect 7 0 6 0;
#X connect 8 0 19 0;
#X connect 9 0 8 0;
#X connect 10 0 19 0;
#X connect 11 0 10 0;
#X connect 12 0 19 0;
#X connect 13 0 12 0;
#X connect 14 0 5 0;
#X connect 15 0 7 0;
#X connect 16 0 9 0;
#X connect 17 0 11 0;
#X connect 18 0 13 0;
#X connect 19 0 21 0;
#X connect 20 0 19 1;
#X connect 22 0 23 0;
#X connect 23 0 20 0;
#X restore 235 104 pd six_pulse_oscs;
#X floatatom 180 61 5 0 0 0 - - -;
#X obj 54 267 freeverb~;
#X obj 126 344 delwrite~ \$0-del 10;
#X obj 126 369 delread~ \$0-del 5;
#X obj 284 131 inlet;
#X text 297 175 dur;
#X obj 177 34 inlet;
#X text 234 39 pitch;
#X obj 151 174 inlet;
#X obj 56 402 outlet~;
#X obj 266 5 loadbang;
#X msg 289 33 220;
#X obj 46 176 *~;
#X floatatom 80 150 5 0 1 0 - - -;
#X obj 434 235 inlet;
#X connect 0 0 18 0;
#X connect 1 0 8 0;
#X connect 1 0 15 0;
#X connect 2 0 3 1;
#X connect 3 0 1 1;
#X connect 4 0 7 0;
#X connect 5 0 4 0;
#X connect 6 0 5 0;
#X connect 7 0 1 0;
#X connect 9 0 15 0;
#X connect 10 0 2 0;
#X connect 12 0 6 0;
#X connect 14 0 3 0;
#X connect 16 0 17 0;
#X connect 17 0 6 0;
#X connect 18 0 4 0;
#X connect 19 0 18 1;
#X connect 20 0 19 0;
#X restore 64 274 pd cymbal;
#X f 40;
#X obj 62 202 bng 15 250 50 0 empty empty empty 17 7 0 10 -262144 -1
-1;
#X floatatom 113 200 5 0 0 0 - - -;
#X floatatom 188 201 5 0 0 0 - - -;
#X floatatom 263 198 5 0 1 0 - - -;
#X obj 59 380 clip~ -1 1;
#X obj 186 45 vsl 15 128 10 1000 1 0 empty hh_decay Decay 0 -9 0 10
-204786 -1 -1 0 1;
#X obj 116 47 vsl 15 128 110 1100 1 0 empty hh_pitch Pitch 0 -9 0 10
-262130 -1 -1 0 1;
#X obj 263 48 vsl 15 128 0.01 1 1 0 empty hh_noise Noise 0 -9 0 10
-203904 -1 -1 0 1;
#X obj 507 20 tgl 15 0 empty empty empty 17 7 0 10 -262144 -1 -1 0
1;
#X obj 521 87 s hh;
#X obj 46 118 r hh;
#X obj 509 50 metro 120;
#X msg 444 121 \; hh_decay 120 \; hh_pitch 220 \; hh_noise 0.3 \;;
#X connect 0 0 8 0;
#X connect 3 0 0 0;
#X connect 4 0 3 0;
#X connect 5 0 3 1;
#X connect 6 0 3 2;
#X connect 7 0 3 3;
#X connect 8 0 1 0;
#X connect 8 0 1 1;
#X connect 9 0 6 0;
#X connect 10 0 5 0;
#X connect 11 0 7 0;
#X connect 12 0 15 0;
#X connect 14 0 4 0;
#X connect 15 0 13 0;
