#N canvas 170 140 1012 620 12;
#X obj 187 110 bng 15 250 50 0 empty empty empty 17 7 0 10 -262144
-1 -1;
#X text 176 43 Hi-Hat;
#X obj 187 166 line~;
#X obj 186 196 pow~ 4;
#X obj 186 232 *~;
#X obj 281 68 phasor~ 350;
#X obj 282 97 *~ 2;
#X obj 283 124 -~ 1;
#X obj 366 97 *~ 2;
#X obj 367 124 -~ 1;
#X obj 287 160 +~;
#X obj 365 68 phasor~ 800;
#X obj 413 149 noise~;
#X obj 415 177 /~ 5;
#X obj 185 257 *~ 4;
#X obj 172 75 inlet;
#X obj 180 330 outlet~;
#X obj 187 297 *~ 0.5;
#X obj 248 31 inlet vol;
#X obj 300 246 hip~ 8000;
#X msg 187 135 1 \, 0 100;
#X obj 299 217 hip~ 6000;
#X obj 300 190 hip~ 2000;
#X connect 0 0 20 0;
#X connect 2 0 3 0;
#X connect 3 0 4 0;
#X connect 4 0 14 0;
#X connect 5 0 6 0;
#X connect 6 0 7 0;
#X connect 7 0 10 0;
#X connect 8 0 9 0;
#X connect 9 0 10 1;
#X connect 10 0 22 0;
#X connect 11 0 8 0;
#X connect 12 0 13 0;
#X connect 13 0 22 0;
#X connect 14 0 17 0;
#X connect 15 0 0 0;
#X connect 17 0 16 0;
#X connect 18 0 17 1;
#X connect 19 0 4 1;
#X connect 20 0 2 0;
#X connect 21 0 19 0;
#X connect 22 0 21 0;
