#N canvas 0 56 1280 703 12;
#X obj 501 174 delwrite~ \$0-buffer 1000;
#X obj 297 28 noise~;
#X obj 392 143 *~;
#X obj 473 113 hsl 128 15 0 1 0 0 empty empty Gain -2 -8 0 10 -204786
-1 -1 3700 1;
#X obj 524 318 delread~ \$0-buffer 10;
#X obj 509 376 *~;
#X obj 569 366 hsl 128 15 0 2 0 0 empty empty Feedback_level -2 -8
0 10 -204800 -1 -1 0 1;
#X floatatom 544 400 5 0 0 0 - - -;
#X obj 393 455 *~;
#X obj 439 448 hsl 128 15 0 1 0 0 empty empty Master_Vol -2 -8 0 10
-232576 -1 -1 6200 1;
#X obj 384 506 dac~;
#X floatatom 541 284 5 0 0 0 - - -;
#X obj 568 261 hsl 128 15 10 1000 1 0 empty empty Delay_time -2 -8
0 10 -261234 -1 -1 11601 1;
#X obj 473 68 osc~;
#X floatatom 472 44 5 0 0 0 - - -;
#X floatatom 935 67 5 0 0 0 - - -;
#X obj 936 103 send delay-time;
#X obj 707 156 receive delay-time;
#X obj 726 184 / 127;
#X obj 715 209 * 1000;
#X floatatom 1081 66 5 0 0 0 - - -;
#X obj 933 21 ctlin 21;
#X obj 1079 20 ctlin 22;
#X obj 1082 102 send feedback-level;
#X obj 735 323 / 127;
#X obj 716 295 receive feedback-level;
#X obj 724 348 * 2;
#X floatatom 469 138 5 0 0 0 - - -;
#X obj 718 242 + 10;
#X obj 555 84 adc~ 2;
#X floatatom 818 67 5 0 0 0 - - -;
#X obj 816 21 ctlin 23;
#X obj 819 103 send freq1;
#X obj 615 33 receive freq1;
#X obj 637 67 mtof;
#X obj 315 107 *~ 0.1;
#X obj 304 71 lop~ 2000;
#X msg 1012 295 open breath.wav \, start;
#X msg 1070 347 stop;
#X obj 1048 392 writesf~;
#X connect 1 0 36 0;
#X connect 2 0 0 0;
#X connect 2 0 8 0;
#X connect 3 0 27 0;
#X connect 4 0 5 0;
#X connect 5 0 0 0;
#X connect 5 0 8 0;
#X connect 6 0 5 1;
#X connect 6 0 7 0;
#X connect 8 0 10 0;
#X connect 8 0 10 1;
#X connect 8 0 39 0;
#X connect 9 0 8 1;
#X connect 11 0 4 0;
#X connect 12 0 11 0;
#X connect 14 0 13 0;
#X connect 15 0 16 0;
#X connect 17 0 18 0;
#X connect 18 0 19 0;
#X connect 19 0 28 0;
#X connect 20 0 23 0;
#X connect 21 0 15 0;
#X connect 22 0 20 0;
#X connect 24 0 26 0;
#X connect 25 0 24 0;
#X connect 26 0 6 0;
#X connect 27 0 2 1;
#X connect 28 0 12 0;
#X connect 30 0 32 0;
#X connect 31 0 30 0;
#X connect 33 0 34 0;
#X connect 34 0 14 0;
#X connect 36 0 35 0;
#X connect 37 0 39 0;
#X connect 38 0 39 0;
