#N canvas 629 99 450 657 12;
#X obj 41 241 phasor~;
#X obj 135 258 phasor~;
#X obj 34 33 inlet;
#X obj 106 32 inlet;
#X obj 174 33 inlet;
#X obj 34 73 mtof;
#X floatatom 36 102 5 0 0 0 - - -;
#X obj 36 131 pack;
#X floatatom 111 69 5 0 0 0 Slew - -;
#X msg 38 168 \$1 \$2;
#X obj 40 198 line~;
#X obj 135 227 *~ 1.003;
#X obj 33 381 bob~;
#X floatatom 59 350 5 0 0 0 - - -;
#X floatatom 108 351 5 0 0 0 - - -;
#X obj 180 303 loadbang;
#X msg 176 356 550;
#X msg 224 359 3;
#X obj 34 409 hip~ 5;
#X obj 106 433 hsl 128 15 0 1 0 0 empty empty Volume -2 -8 0 10 -261234
-1 -1 0 1;
#X obj 36 604 dac~;
#X obj 42 297 expr~ $v1 - 1;
#X obj 99 474 bng 15 250 50 0 empty empty empty 17 7 0 10 -262144 -1
-1;
#X obj 115 493 f;
#X msg 127 519 \$1 5 \, 0 300 20;
#X obj 126 551 vline~;
#X obj 36 571 *~;
#X connect 0 0 21 0;
#X connect 1 0 21 0;
#X connect 2 0 5 0;
#X connect 2 0 22 0;
#X connect 3 0 8 0;
#X connect 4 0 19 0;
#X connect 5 0 6 0;
#X connect 6 0 7 0;
#X connect 7 0 9 0;
#X connect 8 0 7 1;
#X connect 9 0 10 0;
#X connect 10 0 0 0;
#X connect 10 0 11 0;
#X connect 11 0 1 0;
#X connect 12 0 18 0;
#X connect 13 0 12 1;
#X connect 14 0 12 2;
#X connect 15 0 16 0;
#X connect 15 0 17 0;
#X connect 16 0 13 0;
#X connect 17 0 14 0;
#X connect 18 0 26 0;
#X connect 19 0 23 1;
#X connect 21 0 12 0;
#X connect 22 0 23 0;
#X connect 23 0 24 0;
#X connect 24 0 25 0;
#X connect 25 0 26 1;
#X connect 26 0 20 0;
#X connect 26 0 20 1;
