#N canvas 0 56 1280 703 12;
#N canvas 0 50 450 250 (subpatch) 0;
#X array \$0-pitches 12 float 3;
#A 0 64 66 71 73 74 66 64 73 71 66 74 73;
#X coords 0 77 12 60 200 140 1 0 0;
#X restore 100 20 graph;
#X obj 87 227 array set \$0-pitches;
#X msg 84 188 64 66 71 73 74 66 64 73 71 66 74 73;
#X obj 330 443 array get \$0-pitches;
#N canvas 642 190 450 300 counter12 0;
#X obj 24 29 inlet toggle;
#X obj 177 25 inlet speed;
#X obj 52 147 f;
#X obj 95 148 + 1;
#X obj 24 116 metro 144;
#X obj 40 59 sel 0;
#X msg 50 86 0;
#X obj 52 184 % 12;
#X obj 56 216 outlet cnt;
#X connect 0 0 5 0;
#X connect 0 0 4 0;
#X connect 1 0 4 1;
#X connect 2 0 3 0;
#X connect 2 0 7 0;
#X connect 3 0 2 1;
#X connect 4 0 2 0;
#X connect 5 0 6 0;
#X connect 6 0 2 1;
#X connect 7 0 8 0;
#X restore 327 355 pd counter12;
#X floatatom 416 327 5 0 0 1 Speed - -;
#X obj 336 404 hradio 15 1 0 12 empty empty empty 0 -8 0 10 -262144
-1 -1 2;
#X obj 267 315 tgl 15 0 empty empty empty 17 7 0 10 -262144 -1 -1 0
1;
#X msg 384 306 144;
#X obj 331 491 mtof;
#X obj 336 527 osc~;
#X obj 338 564 *~;
#X obj 337 596 dac~;
#X floatatom 375 541 5 0 1 0 - - -;
#X obj 102 462 array get \$0-pitches;
#N canvas 642 190 450 300 counter12 0;
#X obj 24 29 inlet toggle;
#X obj 177 25 inlet speed;
#X obj 52 147 f;
#X obj 95 148 + 1;
#X obj 24 116 metro 144;
#X obj 40 59 sel 0;
#X msg 50 86 0;
#X obj 52 184 % 12;
#X obj 56 216 outlet cnt;
#X connect 0 0 5 0;
#X connect 0 0 4 0;
#X connect 1 0 4 1;
#X connect 2 0 3 0;
#X connect 2 0 7 0;
#X connect 3 0 2 1;
#X connect 4 0 2 0;
#X connect 5 0 6 0;
#X connect 6 0 2 1;
#X connect 7 0 8 0;
#X restore 99 374 pd counter12;
#X floatatom 121 339 5 0 0 1 Speed - -;
#X obj 108 423 hradio 15 1 0 12 empty empty empty 0 -8 0 10 -262144
-1 -1 11;
#X msg 80 309 144;
#X obj 103 510 mtof;
#X obj 108 546 osc~;
#X obj 110 583 *~;
#X obj 109 615 dac~;
#X floatatom 147 560 5 0 1 0 - - -;
#X msg 465 297 143;
#X connect 2 0 1 0;
#X connect 3 0 9 0;
#X connect 4 0 6 0;
#X connect 5 0 4 1;
#X connect 6 0 3 0;
#X connect 7 0 15 0;
#X connect 7 0 4 0;
#X connect 8 0 5 0;
#X connect 9 0 10 0;
#X connect 10 0 11 0;
#X connect 11 0 12 0;
#X connect 11 0 12 1;
#X connect 13 0 11 1;
#X connect 14 0 19 0;
#X connect 15 0 17 0;
#X connect 16 0 15 1;
#X connect 17 0 14 0;
#X connect 18 0 16 0;
#X connect 19 0 20 0;
#X connect 20 0 21 0;
#X connect 21 0 22 0;
#X connect 21 0 22 1;
#X connect 23 0 21 1;
#X connect 24 0 5 0;
