#N canvas 0 56 1280 703 12;
#N canvas 0 50 450 250 (subpatch) 0;
#X array \$0-pitches 12 float 3;
#A 0 69 79 74 67 77 72 74 70 75 79 77 74;
#X coords 0 85 12 50 200 140 1 0 0;
#X restore 99 30 graph;
#X obj 321 86 array set \$0-pitches;
#X msg 1084 440 64 66 71 73 74 66 64 73 71 66 74 73;
#X obj 325 331 array get \$0-pitches;
#N canvas 642 190 450 300 counter12 0;
#X obj 24 29 inlet toggle;
#X obj 177 25 inlet speed;
#X obj 52 147 f;
#X obj 95 148 + 1;
#X obj 24 116 metro 144;
#X obj 40 59 sel 0;
#X msg 50 86 0;
#X obj 52 184 % 12;
#X obj 56 216 outlet cnt;
#X connect 0 0 5 0;
#X connect 0 0 4 0;
#X connect 1 0 4 1;
#X connect 2 0 3 0;
#X connect 2 0 7 0;
#X connect 3 0 2 1;
#X connect 4 0 2 0;
#X connect 5 0 6 0;
#X connect 6 0 2 1;
#X connect 7 0 8 0;
#X restore 322 243 pd counter12;
#X floatatom 411 215 5 0 0 1 Speed - -;
#X obj 331 292 hradio 15 1 0 12 empty empty empty 0 -8 0 10 -262144
-1 -1 1;
#X obj 262 203 tgl 15 0 empty empty empty 17 7 0 10 -262144 -1 -1 1
1;
#X obj 326 379 mtof;
#X obj 331 415 osc~;
#X obj 278 525 *~;
#X obj 97 350 array get \$0-pitches;
#N canvas 642 190 450 300 counter12 0;
#X obj 24 29 inlet toggle;
#X obj 177 25 inlet speed;
#X obj 52 147 f;
#X obj 95 148 + 1;
#X obj 24 116 metro 144;
#X obj 40 59 sel 0;
#X msg 50 86 0;
#X obj 52 184 % 12;
#X obj 56 216 outlet cnt;
#X connect 0 0 5 0;
#X connect 0 0 4 0;
#X connect 1 0 4 1;
#X connect 2 0 3 0;
#X connect 2 0 7 0;
#X connect 3 0 2 1;
#X connect 4 0 2 0;
#X connect 5 0 6 0;
#X connect 6 0 2 1;
#X connect 7 0 8 0;
#X restore 94 262 pd counter12;
#X floatatom 116 227 5 0 0 1 Speed - -;
#X obj 103 311 hradio 15 1 0 12 empty empty empty 0 -8 0 10 -262144
-1 -1 3;
#X obj 98 398 mtof;
#X obj 103 434 osc~;
#X msg 75 197 145;
#X msg 379 194 145;
#X msg 460 185 144;
#X obj 153 473 vline~;
#X obj 170 416 bng 15 250 50 0 empty empty empty 17 7 0 10 -262144
-1 -1;
#X obj 179 526 *~;
#X obj 415 453 vline~;
#X obj 432 396 bng 15 250 50 0 empty empty empty 17 7 0 10 -262144
-1 -1;
#X msg 435 417 0.5 20 0 \, 0 20 100;
#X msg 316 42 69 79 74 67 77 72 74 70 75 79 77 74;
#X obj 473 631 writesf~;
#X msg 420 508 open bfl.wav \, start;
#X msg 483 570 stop;
#X obj 310 587 hsl 128 15 0 1 0 0 empty empty Volume -2 -8 0 10 -204786
-1 -1 0 1;
#X obj 219 632 dac~;
#X obj 215 585 *~ 1;
#X msg 173 437 0.5 20 0 \, 0 20 100;
#X connect 3 0 8 0;
#X connect 4 0 6 0;
#X connect 5 0 4 1;
#X connect 6 0 3 0;
#X connect 7 0 12 0;
#X connect 7 0 4 0;
#X connect 8 0 9 0;
#X connect 8 0 24 0;
#X connect 9 0 10 0;
#X connect 10 0 32 0;
#X connect 11 0 15 0;
#X connect 12 0 14 0;
#X connect 13 0 12 1;
#X connect 14 0 11 0;
#X connect 15 0 16 0;
#X connect 15 0 21 0;
#X connect 16 0 22 0;
#X connect 17 0 13 0;
#X connect 18 0 5 0;
#X connect 19 0 5 0;
#X connect 20 0 22 1;
#X connect 21 0 33 0;
#X connect 22 0 32 0;
#X connect 23 0 10 1;
#X connect 24 0 25 0;
#X connect 25 0 23 0;
#X connect 26 0 1 0;
#X connect 28 0 27 0;
#X connect 29 0 27 0;
#X connect 30 0 32 1;
#X connect 32 0 31 0;
#X connect 32 0 31 1;
#X connect 32 0 27 0;
#X connect 33 0 20 0;
