#N canvas 0 56 1280 703 12;
#X obj 49 37 tgl 15 0 empty empty empty 17 7 0 10 -262144 -1 -1 0 1
;
#X obj 52 111 bng 15 250 50 0 empty empty empty 17 7 0 10 -262144 -1
-1;
#X floatatom 130 42 5 0 0 0 - - -;
#X obj 148 13 hsl 128 15 0 5000 0 0 empty empty Cycle_duration -2 -8
0 10 -261682 -1 -1 2700 1;
#X obj 151 74 s dur;
#X obj 5 72 s tog;
#X obj 52 140 s met, f 6;
#X obj 35 350 metro;
#X obj 199 219 r dur;
#X obj 100 258 expr $f2 / $f1;
#X obj 67 178 hradio 15 1 0 8 empty empty subdivision_1 0 -8 0 10 -262144
-1 -1 0;
#X floatatom 91 300 5 0 0 0 - - -;
#X floatatom 69 234 5 0 0 0 - - -;
#X obj 69 204 + 1;
#X obj 15 307 r tog;
#X obj 43 389 bng 15 250 50 0 empty empty empty 17 7 0 10 -262144 -1
-1;
#X obj 45 424 osc~ 205;
#X obj 44 472 *~;
#X obj 135 458 vline~;
#X obj 38 513 dac~;
#X obj 328 301 metro;
#X obj 492 170 r dur;
#X obj 391 220 expr $f2 / $f1;
#X obj 360 129 hradio 15 1 0 8 empty empty subdivision_2 0 -8 0 10
-262144 -1 -1 1;
#X floatatom 384 251 5 0 0 0 - - -;
#X floatatom 362 185 5 0 0 0 - - -;
#X obj 362 155 + 1;
#X obj 308 258 r tog;
#X obj 336 340 bng 15 250 50 0 empty empty empty 17 7 0 10 -262144
-1 -1;
#X obj 337 423 *~;
#X obj 428 409 vline~;
#X obj 331 464 dac~;
#X msg 134 416 0.5 5 \, 0 100 5;
#X msg 427 367 0.5 5 \, 0 100 5;
#X obj 338 375 osc~ 340;
#X obj 646 294 metro;
#X obj 810 163 r dur;
#X obj 709 213 expr $f2 / $f1;
#X obj 678 122 hradio 15 1 0 8 empty empty subdivision_2 0 -8 0 10
-262144 -1 -1 3;
#X floatatom 702 244 5 0 0 0 - - -;
#X floatatom 680 178 5 0 0 0 - - -;
#X obj 680 148 + 1;
#X obj 626 251 r tog;
#X obj 654 333 bng 15 250 50 0 empty empty empty 17 7 0 10 -262144
-1 -1;
#X obj 655 416 *~;
#X obj 746 402 vline~;
#X obj 649 457 dac~;
#X obj 656 368 osc~ 470;
#X msg 745 360 0.1 5 \, 0 100 5;
#X obj 927 287 metro;
#X obj 1091 156 r dur;
#X obj 990 206 expr $f2 / $f1;
#X obj 959 115 hradio 15 1 0 8 empty empty subdivision_2 0 -8 0 10
-262144 -1 -1 7;
#X floatatom 983 237 5 0 0 0 - - -;
#X floatatom 961 171 5 0 0 0 - - -;
#X obj 961 141 + 1;
#X obj 907 244 r tog;
#X obj 935 326 bng 15 250 50 0 empty empty empty 17 7 0 10 -262144
-1 -1;
#X obj 936 409 *~;
#X obj 1027 395 vline~;
#X obj 930 450 dac~;
#X msg 1026 353 0.1 5 \, 0 100 5;
#X obj 937 361 osc~ 300;
#X obj 50 72 metro 200;
#X connect 0 0 5 0;
#X connect 0 0 63 0;
#X connect 1 0 6 0;
#X connect 2 0 4 0;
#X connect 2 0 63 1;
#X connect 3 0 2 0;
#X connect 7 0 15 0;
#X connect 8 0 9 1;
#X connect 9 0 11 0;
#X connect 10 0 13 0;
#X connect 11 0 7 1;
#X connect 12 0 9 0;
#X connect 13 0 12 0;
#X connect 14 0 7 0;
#X connect 15 0 32 0;
#X connect 16 0 17 0;
#X connect 17 0 19 0;
#X connect 17 0 19 1;
#X connect 18 0 17 1;
#X connect 20 0 28 0;
#X connect 21 0 22 1;
#X connect 22 0 24 0;
#X connect 23 0 26 0;
#X connect 24 0 20 1;
#X connect 25 0 22 0;
#X connect 26 0 25 0;
#X connect 27 0 20 0;
#X connect 28 0 33 0;
#X connect 29 0 31 0;
#X connect 29 0 31 1;
#X connect 30 0 29 1;
#X connect 32 0 18 0;
#X connect 33 0 30 0;
#X connect 34 0 29 0;
#X connect 35 0 43 0;
#X connect 36 0 37 1;
#X connect 37 0 39 0;
#X connect 38 0 41 0;
#X connect 39 0 35 1;
#X connect 40 0 37 0;
#X connect 41 0 40 0;
#X connect 42 0 35 0;
#X connect 43 0 48 0;
#X connect 44 0 46 0;
#X connect 44 0 46 1;
#X connect 45 0 44 1;
#X connect 47 0 44 0;
#X connect 48 0 45 0;
#X connect 49 0 57 0;
#X connect 50 0 51 1;
#X connect 51 0 53 0;
#X connect 52 0 55 0;
#X connect 53 0 49 1;
#X connect 54 0 51 0;
#X connect 55 0 54 0;
#X connect 56 0 49 0;
#X connect 57 0 61 0;
#X connect 58 0 60 0;
#X connect 58 0 60 1;
#X connect 59 0 58 1;
#X connect 61 0 59 0;
#X connect 62 0 58 0;
#X connect 63 0 1 0;
