#N canvas 681 102 450 612 12;
#X obj 41 185 mtof;
#X obj 41 210 osc~;
#X obj 40 240 *~;
#X obj 36 272 dac~;
#X obj 93 244 hsl 128 15 0 1 0 0 empty empty Volume -2 -8 0 10 -261682
-1 -1 4000 1;
#X obj 20 4 tgl 15 0 empty empty empty 17 7 0 10 -262144 -1 -1 1 1
;
#X obj 23 32 metro 250;
#X obj 22 60 random 25;
#X obj 24 89 + 48;
#N canvas 80 84 450 585 quant 0;
#X floatatom 238 265 5 0 0 0 - - -;
#X floatatom 37 130 5 0 0 0 - - -;
#X obj 61 168 % 12;
#X obj 44 433 +;
#X msg 74 264 0;
#X floatatom 42 463 5 0 0 0 - - -;
#X obj 84 222 select 0 2 4 7 9;
#X floatatom 349 371 5 0 0 0 - - -;
#X obj 239 297 - 1;
#X msg 361 409 -2;
#X msg 251 384 - 1;
#X obj 245 337 select 0 2 4 7 9;
#X obj 51 72 inlet;
#X obj 56 524 outlet;
#X obj 198 26 select 0 2 4 5 7 9 11;
#X connect 0 0 8 0;
#X connect 1 0 2 0;
#X connect 1 0 3 0;
#X connect 2 0 6 0;
#X connect 3 0 5 0;
#X connect 4 0 3 1;
#X connect 5 0 13 0;
#X connect 6 0 4 0;
#X connect 6 1 4 0;
#X connect 6 2 4 0;
#X connect 6 3 4 0;
#X connect 6 4 4 0;
#X connect 6 5 4 0;
#X connect 6 5 0 0;
#X connect 7 0 9 0;
#X connect 8 0 11 0;
#X connect 9 0 3 1;
#X connect 10 0 3 1;
#X connect 11 0 10 0;
#X connect 11 1 10 0;
#X connect 11 2 10 0;
#X connect 11 4 7 0;
#X connect 12 0 1 0;
#X restore 38 142 pd quant;
#X connect 0 0 1 0;
#X connect 1 0 2 0;
#X connect 2 0 3 0;
#X connect 2 0 3 1;
#X connect 4 0 2 1;
#X connect 5 0 6 0;
#X connect 6 0 7 0;
#X connect 7 0 8 0;
#X connect 8 0 9 0;
#X connect 9 0 0 0;
