#N canvas 0 56 1280 703 12;
#X obj 420 33 tgl 15 0 empty empty empty 17 7 0 10 -262144 -1 -1 1
1;
#X obj 435 55 metro 110;
#X floatatom 500 22 5 0 0 0 - - -;
#X obj 435 90 s snare;
#X obj 30 16 r snare;
#X obj 30 46 bng 15 250 50 0 empty empty empty 17 7 0 10 -262144 -1
-1;
#X obj 59 359 *~;
#X obj 54 397 dac~;
#X floatatom 99 334 5 0 1 0 - - -;
#N canvas 0 56 856 547 snare_808 0;
#X obj 152 176 noise~;
#X obj 151 296 *~;
#X obj 232 91 f 250;
#N canvas 560 308 450 300 vol_env 0;
#X obj 32 23 inlet;
#X obj 36 100 vline~;
#X obj 40 147 *~;
#X msg 36 63 1 0.5 \, 0 \$1 0.5;
#X obj 35 186 outlet~;
#X connect 0 0 3 0;
#X connect 1 0 2 0;
#X connect 1 0 2 1;
#X connect 2 0 4 0;
#X connect 3 0 1 0;
#X restore 187 131 pd vol_env;
#X obj 132 216 hip~ 100;
#X obj 161 337 vcf~ 3;
#X obj 239 338 vcf~ 5;
#N canvas 786 378 450 300 cutoff_env 0;
#X obj 32 23 inlet;
#X obj 36 100 vline~;
#X obj 40 147 *~;
#X msg 36 63 1 0.5 \, 0 \$1 0.5;
#X obj 35 186 outlet~;
#X connect 0 0 3 0;
#X connect 1 0 2 0;
#X connect 1 0 2 1;
#X connect 2 0 4 0;
#X connect 3 0 1 0;
#X restore 273 219 pd cutoff_env;
#X obj 272 257 *~ 8000;
#X obj 273 290 +~ 100;
#X obj 345 259 *~ 5000;
#X obj 346 292 +~ 500;
#N canvas 547 270 450 300 FM_osc 0;
#X obj 13 117 osc~;
#X obj 18 169 *~;
#X obj 12 53 sig~ 150;
#X obj 15 88 +~;
#X obj 103 156 *~;
#X obj 102 15 osc~ 50;
#X obj 113 61 *~ 30;
#X obj 107 111 inlet~;
#X obj 44 217 outlet~;
#X connect 0 0 1 0;
#X connect 1 0 8 0;
#X connect 2 0 3 0;
#X connect 3 0 0 0;
#X connect 4 0 1 1;
#X connect 5 0 6 0;
#X connect 6 0 3 1;
#X connect 7 0 4 0;
#X restore 22 234 pd FM_osc;
#X obj 289 160 * 2;
#X floatatom 420 233 5 0 0 0 - - -;
#X obj 419 261 * 0.6;
#X obj 424 197 inlet;
#X obj 295 41 inlet;
#X obj 188 396 outlet~;
#X obj 207 36 inlet;
#X connect 0 0 4 0;
#X connect 1 0 5 0;
#X connect 1 0 6 0;
#X connect 2 0 3 0;
#X connect 2 0 13 0;
#X connect 3 0 1 1;
#X connect 3 0 12 0;
#X connect 4 0 1 0;
#X connect 5 0 18 0;
#X connect 6 0 18 0;
#X connect 7 0 8 0;
#X connect 7 0 10 0;
#X connect 8 0 9 0;
#X connect 9 0 5 1;
#X connect 10 0 11 0;
#X connect 11 0 6 1;
#X connect 12 0 5 0;
#X connect 12 0 6 0;
#X connect 13 0 7 0;
#X connect 14 0 15 0;
#X connect 14 0 8 1;
#X connect 15 0 10 1;
#X connect 16 0 14 0;
#X connect 17 0 2 1;
#X connect 19 0 2 0;
#X restore 16 273 pd snare_808;
#X f 31;
#X floatatom 94 224 5 0 0 1 - - -;
#X floatatom 179 225 5 0 0 1 - - -;
#X obj 96 57 vsl 15 128 10 3000 0 0 empty snare_decay Decay 0 -9 0
10 -204800 -1 -1 400 1;
#X obj 169 63 vsl 15 128 500 10000 0 0 empty snare_noise Noise 0 -9
0 10 -204800 -1 -1 11700 1;
#X msg 463 150 \; snare_decay 300 \; snare_noise 6000 \;;
#X msg 469 237 \; snare_decay 800 \; snare_noise 3000 \;;
#X msg 465 332 \; snare_decay 50 \; snare_noise 6000 \;;
#X msg 464 424 \; snare_decay 150 \; snare_noise 6000 \;;
#X connect 0 0 1 0;
#X connect 1 0 3 0;
#X connect 2 0 1 1;
#X connect 4 0 5 0;
#X connect 5 0 9 0;
#X connect 6 0 7 0;
#X connect 6 0 7 1;
#X connect 8 0 6 1;
#X connect 9 0 6 0;
#X connect 10 0 9 1;
#X connect 11 0 9 2;
#X connect 12 0 10 0;
#X connect 13 0 11 0;
