#N canvas 0 56 1078 682 12;
#X obj 401 143 bng 15 250 50 0 empty empty empty 17 7 0 10 -262144
-1 -1;
#X text 400 114 Snare Drum;
#X obj 401 167 t b b;
#X obj 401 222 line~;
#X text 454 221 Drum;
#X obj 401 251 pow~ 4;
#X obj 465 251 osc~ 200;
#X obj 401 280 *~;
#X obj 402 309 +~;
#X obj 403 339 lop~ 4000;
#X msg 401 194 1 \, 0 100;
#X obj 538 208 line~;
#X obj 539 237 pow~ 4;
#X obj 541 266 *~;
#X text 599 153 Snares;
#X obj 620 181 noise~;
#X obj 620 212 hip~ 3000;
#X obj 619 239 bp~ 5000 2;
#X msg 535 180 1 \, 0 200;
#X obj 365 80 inlet;
#X obj 405 434 outlet~;
#X obj 407 386 *~ 0.5;
#X obj 511 63 inlet;
#X connect 0 0 2 0;
#X connect 2 0 10 0;
#X connect 2 1 18 0;
#X connect 3 0 5 0;
#X connect 5 0 7 0;
#X connect 6 0 7 1;
#X connect 7 0 8 0;
#X connect 8 0 9 0;
#X connect 9 0 21 0;
#X connect 10 0 3 0;
#X connect 11 0 12 0;
#X connect 12 0 13 0;
#X connect 13 0 8 1;
#X connect 15 0 16 0;
#X connect 16 0 17 0;
#X connect 17 0 13 1;
#X connect 18 0 11 0;
#X connect 19 0 0 0;
#X connect 21 0 20 0;
#X connect 22 0 21 1;
