#N canvas 0 56 1280 703 12;
#X obj 548 480 osc~ 396;
#X obj 638 481 osc~ 417;
#X obj 725 482 osc~ 528;
#X obj 811 482 osc~ 639;
#X obj 888 483 osc~ 741;
#X obj 970 483 osc~ 852;
#X obj 817 104 dac~;
#X obj 721 36 catch~ left;
#X obj 850 38 catch~ right;
#X obj 698 630 throw~ left;
#X obj 804 632 throw~ right;
#X obj 550 541 *~ 0;
#X obj 642 553 *~ 0;
#X obj 733 555 *~ 0;
#X obj 817 558 *~ 0;
#X obj 896 556 *~ 0;
#X obj 990 556 *~ 0;
#X obj 581 512 r env1;
#X obj 671 515 r env2;
#X obj 761 515 r env3;
#X obj 839 516 r env4;
#X obj 923 520 r env5;
#X obj 1008 521 r env6;
#X obj 62 279 *~ 0.1;
#X obj 160 279 *~ 0.1;
#X floatatom 16 112 5 0 0 0 - - -;
#X floatatom 154 115 5 0 0 0 - - -;
#X text 169 94 entrainment freq;
#X obj 164 176 osc~;
#X obj 41 158 osc~;
#X obj 121 144 +;
#X floatatom 215 243 5 0 1 0 - - -;
#X text 220 205 vol;
#X text 61 109 base freq;
#X obj 53 334 throw~ left;
#X obj 159 336 throw~ right;
#X obj 347 9 tgl 15 0 empty empty empty 17 7 0 10 -262144 -1 -1 1 1
;
#X obj 346 78 bng 15 250 50 0 empty empty empty 17 7 0 10 -262144 -1
-1;
#X floatatom 350 151 5 0 0 0 - - -;
#X obj 349 179 sel 0 1 2 3 4 5, f 65;
#X obj 274 210 bng 15 250 50 0 empty empty empty 17 7 0 10 -262144
-1 -1;
#X obj 278 268 line 0 1;
#X msg 278 237 0.2 10;
#X floatatom 335 295 5 0 0 0 - - -;
#X obj 344 219 delay 20;
#X msg 344 243 0 4000;
#X obj 351 114 random 6;
#X obj 263 300 s env1;
#X obj 401 243 bng 15 250 50 0 empty empty empty 17 7 0 10 -262144
-1 -1;
#X obj 405 301 line 0 1;
#X msg 405 270 0.2 10;
#X floatatom 462 328 5 0 0 0 - - -;
#X obj 471 252 delay 20;
#X msg 471 276 0 4000;
#X obj 390 333 s env2;
#X obj 542 252 bng 15 250 50 0 empty empty empty 17 7 0 10 -262144
-1 -1;
#X obj 543 327 line 0 1;
#X msg 543 296 0.2 10;
#X floatatom 600 354 5 0 0 0 - - -;
#X obj 595 279 delay 20;
#X msg 595 303 0 4000;
#X obj 672 307 bng 15 250 50 0 empty empty empty 17 7 0 10 -262144
-1 -1;
#X obj 673 382 line 0 1;
#X msg 673 351 0.2 10;
#X floatatom 730 409 5 0 0 0 - - -;
#X obj 725 334 delay 20;
#X msg 725 358 0 4000;
#X obj 528 359 s env3;
#X obj 658 414 s env4;
#X obj 818 285 bng 15 250 50 0 empty empty empty 17 7 0 10 -262144
-1 -1;
#X obj 819 360 line 0 1;
#X msg 819 329 0.2 10;
#X floatatom 876 387 5 0 0 0 - - -;
#X obj 871 312 delay 20;
#X msg 871 336 0 4000;
#X obj 804 392 s env5;
#X obj 976 280 bng 15 250 50 0 empty empty empty 17 7 0 10 -262144
-1 -1;
#X obj 977 355 line 0 1;
#X msg 977 324 0.2 10;
#X floatatom 1034 382 5 0 0 0 - - -;
#X obj 1029 307 delay 20;
#X msg 1029 331 0 4000;
#X obj 962 387 s env6;
#X obj 342 41 metro 4000;
#X obj 448 68 random 6000;
#X floatatom 465 89 5 0 0 0 - - -;
#X obj 51 489 noise~;
#X obj 52 567 lop~ 400;
#X obj 18 624 throw~ left;
#X obj 124 626 throw~ right;
#X obj 283 386 tgl 15 0 empty empty empty 17 7 0 10 -262144 -1 -1 1
1;
#X obj 275 443 bng 15 250 50 0 empty empty empty 17 7 0 10 -262144
-1 -1;
#X obj 278 412 metro 4000;
#X obj 353 450 random 6000;
#X floatatom 369 483 5 0 0 0 - - -;
#X obj 275 504 + 50;
#X floatatom 273 536 5 0 0 0 - - -;
#X obj 273 567 mtof;
#X obj 273 597 \$1 4000;
#X obj 273 626 line;
#X floatatom 270 663 5 0 0 0 - - -;
#X obj 275 472 random 60;
#X msg 1083 71 stop;
#X obj 64 2 tgl 15 0 empty empty empty 17 7 0 10 -262144 -1 -1 1 1
;
#X obj 23 16 bng 15 250 50 0 empty empty empty 17 7 0 10 -262144 -1
-1;
#X obj 59 23 metro 12000;
#X obj 15 45 random 5;
#X msg 975 34 open binaural.wav \, start;
#X obj 1028 131 writesf~;
#X obj 56 527 *~ 0.04;
#X obj 19 75 + 120;
#X connect 0 0 11 0;
#X connect 1 0 12 0;
#X connect 2 0 13 0;
#X connect 3 0 14 0;
#X connect 4 0 15 0;
#X connect 5 0 16 0;
#X connect 7 0 6 0;
#X connect 7 0 108 0;
#X connect 8 0 6 1;
#X connect 8 0 108 0;
#X connect 11 0 9 0;
#X connect 11 0 10 0;
#X connect 12 0 9 0;
#X connect 12 0 10 0;
#X connect 13 0 10 0;
#X connect 13 0 9 0;
#X connect 14 0 10 0;
#X connect 14 0 9 0;
#X connect 15 0 10 0;
#X connect 15 0 9 0;
#X connect 16 0 10 0;
#X connect 16 0 9 0;
#X connect 17 0 11 1;
#X connect 18 0 12 1;
#X connect 19 0 13 1;
#X connect 21 0 15 1;
#X connect 22 0 16 1;
#X connect 23 0 34 0;
#X connect 24 0 35 0;
#X connect 25 0 29 0;
#X connect 25 0 30 0;
#X connect 26 0 30 1;
#X connect 28 0 24 0;
#X connect 29 0 23 0;
#X connect 30 0 28 0;
#X connect 31 0 23 1;
#X connect 31 0 24 1;
#X connect 36 0 83 0;
#X connect 37 0 46 0;
#X connect 38 0 39 0;
#X connect 39 0 40 0;
#X connect 39 1 48 0;
#X connect 39 2 55 0;
#X connect 39 3 61 0;
#X connect 39 4 69 0;
#X connect 39 5 76 0;
#X connect 40 0 42 0;
#X connect 40 0 44 0;
#X connect 41 0 43 0;
#X connect 41 0 47 0;
#X connect 42 0 41 0;
#X connect 44 0 45 0;
#X connect 45 0 41 0;
#X connect 46 0 38 0;
#X connect 48 0 50 0;
#X connect 48 0 52 0;
#X connect 49 0 51 0;
#X connect 49 0 54 0;
#X connect 50 0 49 0;
#X connect 52 0 53 0;
#X connect 53 0 49 0;
#X connect 55 0 57 0;
#X connect 55 0 59 0;
#X connect 56 0 58 0;
#X connect 56 0 67 0;
#X connect 57 0 56 0;
#X connect 59 0 60 0;
#X connect 60 0 56 0;
#X connect 61 0 63 0;
#X connect 61 0 65 0;
#X connect 62 0 64 0;
#X connect 62 0 68 0;
#X connect 63 0 62 0;
#X connect 65 0 66 0;
#X connect 66 0 62 0;
#X connect 69 0 71 0;
#X connect 69 0 73 0;
#X connect 70 0 72 0;
#X connect 70 0 75 0;
#X connect 71 0 70 0;
#X connect 73 0 74 0;
#X connect 74 0 70 0;
#X connect 76 0 78 0;
#X connect 76 0 80 0;
#X connect 77 0 79 0;
#X connect 77 0 82 0;
#X connect 78 0 77 0;
#X connect 80 0 81 0;
#X connect 81 0 77 0;
#X connect 83 0 37 0;
#X connect 83 0 84 0;
#X connect 84 0 83 1;
#X connect 84 0 85 0;
#X connect 86 0 109 0;
#X connect 87 0 88 0;
#X connect 87 0 89 0;
#X connect 90 0 92 0;
#X connect 91 0 101 0;
#X connect 92 0 91 0;
#X connect 92 0 93 0;
#X connect 93 0 92 1;
#X connect 93 0 94 0;
#X connect 95 0 96 0;
#X connect 96 0 97 0;
#X connect 97 0 98 0;
#X connect 98 0 99 0;
#X connect 99 0 100 0;
#X connect 99 0 87 1;
#X connect 101 0 95 0;
#X connect 102 0 108 0;
#X connect 103 0 105 0;
#X connect 104 0 106 0;
#X connect 105 0 104 0;
#X connect 106 0 110 0;
#X connect 107 0 108 0;
#X connect 109 0 87 0;
#X connect 110 0 25 0;
