#N canvas 0 56 1280 703 12;
#X obj 51 26 tgl 15 0 empty empty empty 17 7 0 10 -262144 -1 -1 0 1
;
#X obj 60 98 bng 15 250 50 0 empty empty empty 17 7 0 10 -262144 -1
-1;
#X floatatom 103 5 5 0 0 0 - - -;
#X msg 103 30 tempo \$1 permin;
#X obj 60 134 f;
#X obj 97 134 + 1;
#X floatatom 63 176 5 0 0 0 - - -;
#X obj 63 206 % 4;
#X floatatom 64 239 5 0 0 0 - - -;
#X obj 64 277 select 0 1 2 3;
#X obj 64 314 bng 15 250 50 0 empty empty empty 17 7 0 10 -262144 -1
-1;
#X obj 97 313 bng 15 250 50 0 empty empty empty 17 7 0 10 -262144 -1
-1;
#X obj 131 313 bng 15 250 50 0 empty empty empty 17 7 0 10 -262144
-1 -1;
#X obj 163 314 bng 15 250 50 0 empty empty empty 17 7 0 10 -262144
-1 -1;
#X floatatom 50 348 5 0 127 0 - - -;
#X floatatom 97 348 5 0 127 0 - - -;
#X floatatom 146 348 5 0 127 0 - - -;
#X floatatom 194 347 5 0 127 0 - - -;
#X obj 35 413 mtof;
#X obj 32 383 select 0;
#X floatatom 36 444 5 0 0 0 - - -;
#X obj 253 138 phasor~;
#X obj 249 180 expr~ $v1 * 2 - 1;
#X obj 271 326 *~;
#X obj 263 364 dac~;
#X obj 308 295 hsl 128 15 0 1 0 0 empty empty Volume -2 -8 0 10 -262130
-1 -1 0 1;
#X obj 255 235 lop~ 500;
#X obj 249 105 line~;
#X msg 269 69 \$1 \$2;
#X obj 284 36 pack;
#X floatatom 317 9 5 0 500 0 Slew_Rate - -;
#X obj 52 56 metro 0.25 120 permin;
#X connect 0 0 31 0;
#X connect 1 0 4 0;
#X connect 2 0 3 0;
#X connect 3 0 31 0;
#X connect 4 0 5 0;
#X connect 4 0 6 0;
#X connect 5 0 4 1;
#X connect 6 0 7 0;
#X connect 7 0 8 0;
#X connect 8 0 9 0;
#X connect 9 0 10 0;
#X connect 9 1 11 0;
#X connect 9 2 12 0;
#X connect 9 3 13 0;
#X connect 10 0 14 0;
#X connect 11 0 15 0;
#X connect 12 0 16 0;
#X connect 13 0 17 0;
#X connect 14 0 19 0;
#X connect 15 0 19 0;
#X connect 16 0 19 0;
#X connect 17 0 19 0;
#X connect 18 0 20 0;
#X connect 19 1 18 0;
#X connect 20 0 29 0;
#X connect 21 0 22 0;
#X connect 22 0 26 0;
#X connect 23 0 24 0;
#X connect 23 0 24 1;
#X connect 25 0 23 1;
#X connect 26 0 23 0;
#X connect 27 0 21 0;
#X connect 28 0 27 0;
#X connect 29 0 28 0;
#X connect 30 0 29 1;
#X connect 31 0 1 0;
