#N canvas 0 56 1280 703 12;
#X floatatom 377 152 5 0 0 0 - - -;
#X floatatom 464 159 5 0 0 0 - - -;
#X obj 457 108 ctlin 22;
#X obj 379 197 send cutoff1;
#X obj 501 194 send releaseRate;
#X obj 137 194 notein;
#X obj 139 344 pack 0 0 0;
#X obj 157 500 dac~;
#X obj 137 300 - 1;
#X obj 370 108 ctlin 21;
#X obj 137 249 poly 4 1;
#X obj 131 414 clone mono_synth 4;
#X connect 0 0 3 0;
#X connect 1 0 4 0;
#X connect 2 0 1 0;
#X connect 5 0 10 0;
#X connect 5 1 10 1;
#X connect 6 0 11 0;
#X connect 8 0 6 0;
#X connect 9 0 0 0;
#X connect 10 0 8 0;
#X connect 10 1 6 1;
#X connect 10 2 6 2;
#X connect 11 0 7 0;
#X connect 11 0 7 1;
