#N canvas 0 56 1280 703 12;
#X obj 89 183 osc~;
#X floatatom 81 130 5 0 0 0 - - -;
#X obj 88 230 *~;
#X floatatom 139 198 5 0 1 0 - - -;
#X obj 215 181 osc~;
#X floatatom 207 128 5 0 0 0 - - -;
#X obj 214 228 *~;
#X floatatom 265 196 5 0 1 0 - - -;
#X obj 155 438 *~;
#X floatatom 216 425 5 0 1 0 - - -;
#X floatatom 239 41 5 0 0 0 - - -;
#X obj 107 86 * 1;
#X obj 200 90 * 2;
#X obj 317 174 osc~;
#X floatatom 309 121 5 0 0 0 - - -;
#X obj 316 221 *~;
#X floatatom 367 189 5 0 1 0 - - -;
#X obj 410 173 osc~;
#X floatatom 402 120 5 0 0 0 - - -;
#X obj 409 220 *~;
#X floatatom 460 188 5 0 1 0 - - -;
#X obj 517 171 osc~;
#X floatatom 509 118 5 0 0 0 - - -;
#X obj 516 218 *~;
#X floatatom 567 186 5 0 1 0 - - -;
#X obj 302 83 * 3;
#X obj 395 82 * 4;
#X obj 502 80 * 5;
#X obj 655 170 osc~;
#X floatatom 647 117 5 0 0 0 - - -;
#X obj 654 217 *~;
#X floatatom 705 185 5 0 1 0 - - -;
#X obj 640 79 * 6;
#X obj 235 12 inlet;
#X obj 783 169 osc~;
#X floatatom 775 116 5 0 0 0 - - -;
#X obj 782 216 *~;
#X floatatom 833 184 5 0 1 0 - - -;
#X obj 768 78 * 7;
#X obj 391 639 outlet~;
#X connect 0 0 2 0;
#X connect 1 0 0 0;
#X connect 2 0 8 0;
#X connect 3 0 2 1;
#X connect 4 0 6 0;
#X connect 5 0 4 0;
#X connect 6 0 8 0;
#X connect 7 0 6 1;
#X connect 8 0 39 0;
#X connect 9 0 8 1;
#X connect 10 0 11 0;
#X connect 10 0 12 0;
#X connect 10 0 25 0;
#X connect 10 0 26 0;
#X connect 10 0 27 0;
#X connect 10 0 32 0;
#X connect 10 0 38 0;
#X connect 11 0 1 0;
#X connect 12 0 5 0;
#X connect 13 0 15 0;
#X connect 14 0 13 0;
#X connect 15 0 8 0;
#X connect 16 0 15 1;
#X connect 17 0 19 0;
#X connect 18 0 17 0;
#X connect 19 0 8 0;
#X connect 20 0 19 1;
#X connect 21 0 23 0;
#X connect 22 0 21 0;
#X connect 23 0 8 0;
#X connect 24 0 23 1;
#X connect 25 0 14 0;
#X connect 26 0 18 0;
#X connect 27 0 22 0;
#X connect 28 0 30 0;
#X connect 29 0 28 0;
#X connect 30 0 8 0;
#X connect 31 0 30 1;
#X connect 32 0 29 0;
#X connect 33 0 10 0;
#X connect 34 0 36 0;
#X connect 35 0 34 0;
#X connect 36 0 8 0;
#X connect 37 0 36 1;
#X connect 38 0 35 0;
