#N canvas 0 56 1280 703 12;
#X declare -path abs/;
#N canvas 0 50 450 250 (subpatch) 0;
#X array \$0-pitches 12 float 3;
#A 0 64 66 71 73 74 66 64 73 71 66 74 73;
#X coords 0 77 12 60 200 140 1 0 0;
#X restore 100 20 graph;
#X obj 87 227 array set \$0-pitches;
#X msg 84 188 64 66 71 73 74 66 64 73 71 66 74 73;
#X obj 330 443 array get \$0-pitches;
#N canvas 642 190 450 300 counter12 0;
#X obj 24 29 inlet toggle;
#X obj 177 25 inlet speed;
#X obj 52 147 f;
#X obj 95 148 + 1;
#X obj 24 116 metro 144;
#X obj 40 59 sel 0;
#X msg 50 86 0;
#X obj 52 184 % 12;
#X obj 56 216 outlet cnt;
#X connect 0 0 5 0;
#X connect 0 0 4 0;
#X connect 1 0 4 1;
#X connect 2 0 3 0;
#X connect 2 0 7 0;
#X connect 3 0 2 1;
#X connect 4 0 2 0;
#X connect 5 0 6 0;
#X connect 6 0 2 1;
#X connect 7 0 8 0;
#X restore 327 355 pd counter12;
#X floatatom 416 327 5 0 0 1 Speed - -;
#X obj 336 404 hradio 15 1 0 12 empty empty empty 0 -8 0 10 -262144
-1 -1 2;
#X obj 267 315 tgl 15 0 empty empty empty 17 7 0 10 -262144 -1 -1 0
1;
#X msg 384 306 144;
#X obj 331 491 mtof;
#X obj 336 527 osc~;
#X obj 338 564 *~;
#X obj 337 596 dac~;
#X floatatom 375 541 5 0 1 0 - - -;
#X obj 102 462 array get \$0-pitches;
#N canvas 642 190 450 300 counter12 0;
#X obj 24 29 inlet toggle;
#X obj 177 25 inlet speed;
#X obj 52 147 f;
#X obj 95 148 + 1;
#X obj 24 116 metro 144;
#X obj 40 59 sel 0;
#X msg 50 86 0;
#X obj 52 184 % 12;
#X obj 56 216 outlet cnt;
#X connect 0 0 5 0;
#X connect 0 0 4 0;
#X connect 1 0 4 1;
#X connect 2 0 3 0;
#X connect 2 0 7 0;
#X connect 3 0 2 1;
#X connect 4 0 2 0;
#X connect 5 0 6 0;
#X connect 6 0 2 1;
#X connect 7 0 8 0;
#X restore 99 374 pd counter12;
#X floatatom 121 339 5 0 0 1 Speed - -;
#X obj 108 423 hradio 15 1 0 12 empty empty empty 0 -8 0 10 -262144
-1 -1 11;
#X msg 80 309 144;
#X obj 103 510 mtof;
#X obj 111 605 *~;
#X obj 110 637 dac~;
#X floatatom 148 582 5 0 1 0 - - -;
#X msg 465 297 143;
#N canvas 0 56 450 300 pluck 1;
#X obj 113 191 hsl 128 15 0 127 0 0 \$0-pos-send \$0-pos-rec POSITION
0 8 0 10 -1 -262144 -262144 6400 1;
#X obj 113 157 hsl 128 15 0 127 0 0 \$0-vel-send \$0-vel-rec VELOCITY
0 8 0 10 -1 -262144 -262144 10000 1;
#X obj 102 112 bng 15 50 50 0 empty empty empty 17 7 0 10 -1 -228856
-1;
#X obj 171 117 cnv 15 5 5 empty empty PLUCK 1 9 0 14 -262144 -1 0;
#X obj 113 140 hsl 128 15 0 127 0 0 \$0-pitch-send \$0-pitch-rec PITCH
0 8 0 10 -1 -262144 -262144 6000 1;
#X obj 403 26 loadbang;
#X obj 245 140 nbx 3 15 0 127 0 0 empty empty empty 0 -8 0 10 -1 -262144
-1 60 256;
#X obj 23 42 threshold~ 0.9 0 0.9 0;
#X obj 23 21 inlet~;
#X obj 100 100 cnv 5 25 10 empty empty TRIG 1 5 0 8 -1 -262144 0;
#X obj 265 100 cnv 5 25 10 empty empty PITCH 0 5 0 8 -1 -262144 0;
#X obj 221 33 inlet~ pitch;
#X obj 528 30 declare -path abs/;
#N canvas 0 23 123 169 poly 0;
#X obj 8 9 inlet bang;
#X obj 8 30 f 0;
#X obj 48 30 + 1;
#X obj 48 51 mod 2;
#X floatatom 8 101 5 0 0 0 - - -;
#X obj 8 121 outlet;
#X connect 0 0 1 0;
#X connect 1 0 2 0;
#X connect 1 0 4 0;
#X connect 2 0 3 0;
#X connect 3 0 1 1;
#X connect 4 0 5 0;
#X restore 60 306 pd poly 2;
#X obj 23 63 t b b;
#X obj 60 327 sel 0 1;
#X obj 60 447 outlet~;
#X obj 245 225 tgl 15 1 empty empty empty 17 7 0 10 -1 -262144 -1 1
1;
#X obj 337 351 s \$0-doublestring;
#N canvas 630 150 750 634 pluck1 0;
#X obj 61 13 inlet bang;
#X obj 233 236 rpole~;
#X obj 296 29 / 127;
#X obj 296 91 -;
#X obj 357 440 -~;
#X obj 184 468 -~;
#X obj 184 582 outlet~;
#X obj 357 516 *~;
#X obj 372 465 r \$0-doublestring;
#X obj 372 486 lop~ 50;
#X obj 430 317 *~ 0.996;
#X obj 432 125 mtof~;
#X obj 432 104 +~;
#X obj 432 83 sig~;
#X obj 199 436 combdelay~;
#X obj 372 407 combdelay~;
#X obj 520 152 sig~;
#X obj 233 168 catch~ \$0-exciter1;
#X obj 514 71 r~ \$0-inlet-pitch;
#X obj 184 387 string~ \$0;
#X obj 357 359 string~ \$0;
#N canvas 4 120 695 500 implement 0;
#X obj 159 15 inlet;
#X obj 159 36 t b f;
#X obj 195 63 s \$0-slider-pitch;
#X obj 144 277 noise~;
#X obj 144 408 *~;
#X obj 174 189 + 1;
#X obj 144 429 throw~ \$0-exciter1;
#X obj 159 323 line~;
#X obj 159 344 cos~;
#X obj 159 365 *~ 0.5;
#X obj 159 386 +~ 0.5;
#X obj 39 149 loadbang;
#X obj 159 209 f 5;
#X msg 159 302 -0.5 \, 0.5 \$1;
#X obj 174 147 / 127;
#X obj 174 168 * 19;
#X obj 174 126 r \$0-pick-send;
#X connect 0 0 1 0;
#X connect 1 0 12 0;
#X connect 1 1 2 0;
#X connect 3 0 4 0;
#X connect 4 0 6 0;
#X connect 5 0 12 1;
#X connect 7 0 8 0;
#X connect 8 0 9 0;
#X connect 9 0 10 0;
#X connect 10 0 4 1;
#X connect 11 0 12 0;
#X connect 12 0 13 0;
#X connect 13 0 7 0;
#X connect 14 0 15 0;
#X connect 15 0 5 0;
#X connect 16 0 14 0;
#X restore 61 49 pd implement;
#X obj 296 70 swap 0.999;
#X obj 296 49 * 0.15;
#X obj 233 287 *~;
#X obj 248 267 * 0.5;
#X obj 432 41 r \$0-pitch-send;
#X obj 432 62 max 20;
#X obj 296 8 r \$0-vel-send;
#X obj 520 110 r \$0-pos-send;
#X obj 520 131 / 127;
#X connect 0 0 21 0;
#X connect 1 0 24 0;
#X connect 2 0 25 0;
#X connect 2 0 23 0;
#X connect 3 0 1 1;
#X connect 4 0 7 0;
#X connect 5 0 6 0;
#X connect 7 0 6 0;
#X connect 8 0 9 0;
#X connect 9 0 7 1;
#X connect 10 0 15 1;
#X connect 10 0 20 1;
#X connect 11 0 10 0;
#X connect 11 0 14 1;
#X connect 11 0 19 1;
#X connect 12 0 11 0;
#X connect 13 0 12 0;
#X connect 14 0 5 1;
#X connect 15 0 4 1;
#X connect 16 0 14 2;
#X connect 16 0 15 2;
#X connect 17 0 1 0;
#X connect 18 0 12 1;
#X connect 19 0 5 0;
#X connect 19 0 14 0;
#X connect 20 0 4 0;
#X connect 20 0 15 0;
#X connect 22 0 3 0;
#X connect 22 1 3 1;
#X connect 23 0 22 0;
#X connect 24 0 20 0;
#X connect 24 0 19 0;
#X connect 25 0 24 1;
#X connect 26 0 27 0;
#X connect 27 0 13 0;
#X connect 28 0 2 0;
#X connect 29 0 30 0;
#X connect 30 0 16 0;
#X restore 60 349 pd pluck1;
#X obj 245 157 bng 32 250 50 0 empty empty RAND 4 16 0 10 -1 -262144
-262144;
#X obj 221 75 s~ \$0-inlet-pitch;
#X obj 221 54 *~ 127;
#X obj 113 208 hsl 128 15 0 127 0 0 \$0-damp-send \$0-damp-rec DAMPEN
0 8 0 10 -1 -262144 -262144 12700 1;
#X obj 100 250 cnv 5 25 10 empty empty OUT 1 5 0 8 -1 -262144 0;
#X obj 113 174 hsl 128 15 0 127 0 0 \$0-pick-send \$0-pick-rec PICK
0 8 0 10 -1 -262144 -262144 2700 1;
#X obj 245 191 bng 32 250 50 0 empty empty INIT 4 16 0 10 -1 -262144
-262144;
#X obj 403 47 f \$0;
#N canvas 0 162 750 634 pluck2 0;
#X obj 61 13 inlet bang;
#X obj 233 236 rpole~;
#X obj 296 29 / 127;
#X obj 296 91 -;
#X obj 357 440 -~;
#X obj 184 468 -~;
#X obj 184 582 outlet~;
#X obj 357 516 *~;
#X obj 372 465 r \$0-doublestring;
#X obj 372 486 lop~ 50;
#X obj 430 317 *~ 0.996;
#X obj 432 125 mtof~;
#X obj 432 104 +~;
#X obj 432 83 sig~;
#X obj 199 436 combdelay~;
#X obj 372 407 combdelay~;
#X obj 520 152 sig~;
#X obj 514 71 r~ \$0-inlet-pitch;
#X obj 184 387 string~ \$0;
#X obj 357 359 string~ \$0;
#N canvas 4 120 695 500 implement 0;
#X obj 159 15 inlet;
#X obj 159 36 t b f;
#X obj 195 63 s \$0-slider-pitch;
#X obj 144 277 noise~;
#X obj 144 408 *~;
#X obj 174 189 + 1;
#X obj 159 323 line~;
#X obj 159 344 cos~;
#X obj 159 365 *~ 0.5;
#X obj 159 386 +~ 0.5;
#X obj 39 149 loadbang;
#X obj 159 209 f 5;
#X msg 159 302 -0.5 \, 0.5 \$1;
#X obj 174 147 / 127;
#X obj 174 168 * 19;
#X obj 174 126 r \$0-pick-send;
#X obj 144 429 throw~ \$0-exciter2;
#X connect 0 0 1 0;
#X connect 1 0 11 0;
#X connect 1 1 2 0;
#X connect 3 0 4 0;
#X connect 4 0 16 0;
#X connect 5 0 11 1;
#X connect 6 0 7 0;
#X connect 7 0 8 0;
#X connect 8 0 9 0;
#X connect 9 0 4 1;
#X connect 10 0 11 0;
#X connect 11 0 12 0;
#X connect 12 0 6 0;
#X connect 13 0 14 0;
#X connect 14 0 5 0;
#X connect 15 0 13 0;
#X restore 61 49 pd implement;
#X obj 296 70 swap 0.999;
#X obj 296 49 * 0.15;
#X obj 233 287 *~;
#X obj 248 267 * 0.5;
#X obj 432 41 r \$0-pitch-send;
#X obj 432 62 max 20;
#X obj 296 8 r \$0-vel-send;
#X obj 520 110 r \$0-pos-send;
#X obj 520 131 / 127;
#X obj 233 168 catch~ \$0-exciter2;
#X connect 0 0 20 0;
#X connect 1 0 23 0;
#X connect 2 0 24 0;
#X connect 2 0 22 0;
#X connect 3 0 1 1;
#X connect 4 0 7 0;
#X connect 5 0 6 0;
#X connect 7 0 6 0;
#X connect 8 0 9 0;
#X connect 9 0 7 1;
#X connect 10 0 15 1;
#X connect 10 0 19 1;
#X connect 11 0 10 0;
#X connect 11 0 14 1;
#X connect 11 0 18 1;
#X connect 12 0 11 0;
#X connect 13 0 12 0;
#X connect 14 0 5 1;
#X connect 15 0 4 1;
#X connect 16 0 14 2;
#X connect 16 0 15 2;
#X connect 17 0 12 1;
#X connect 18 0 5 0;
#X connect 18 0 14 0;
#X connect 19 0 4 0;
#X connect 19 0 15 0;
#X connect 21 0 3 0;
#X connect 21 1 3 1;
#X connect 22 0 21 0;
#X connect 23 0 18 0;
#X connect 23 0 19 0;
#X connect 24 0 23 1;
#X connect 25 0 26 0;
#X connect 26 0 13 0;
#X connect 27 0 2 0;
#X connect 28 0 29 0;
#X connect 29 0 16 0;
#X connect 30 0 1 0;
#X restore 70 369 pd pluck2;
#X msg 403 68 \; \$1-pitch-rec 60 \; \$1-vel-rec 100 \; \$1-pick-rec
27 \; \$1-pos-rec 64 \; \$1-damp-rec 127 \;;
#X obj 494 222 randomizer 127 127 127 127 127;
#X obj 494 243 list prepend \$0;
#X msg 494 264 \; \$1-pitch-rec \$2 \; \$1-vel-rec \$3 \; \$1-pick-rec
\$4 \; \$1-pos-rec \$5 \; \$1-damp-rec \$6 \;;
#X connect 2 0 13 0;
#X connect 4 0 6 0;
#X connect 5 0 27 0;
#X connect 7 0 14 0;
#X connect 8 0 7 0;
#X connect 11 0 22 0;
#X connect 13 0 15 0;
#X connect 14 0 2 0;
#X connect 15 0 19 0;
#X connect 15 1 28 0;
#X connect 17 0 18 0;
#X connect 19 0 16 0;
#X connect 20 0 30 0;
#X connect 22 0 21 0;
#X connect 26 0 27 0;
#X connect 27 0 29 0;
#X connect 28 0 16 0;
#X connect 30 0 31 0;
#X connect 31 0 32 0;
#X restore 106 549 pd pluck;
#X connect 2 0 1 0;
#X connect 3 0 9 0;
#X connect 4 0 6 0;
#X connect 5 0 4 1;
#X connect 6 0 3 0;
#X connect 7 0 15 0;
#X connect 7 0 4 0;
#X connect 8 0 5 0;
#X connect 9 0 10 0;
#X connect 10 0 11 0;
#X connect 11 0 12 0;
#X connect 11 0 12 1;
#X connect 13 0 11 1;
#X connect 14 0 19 0;
#X connect 15 0 17 0;
#X connect 16 0 15 1;
#X connect 17 0 14 0;
#X connect 18 0 16 0;
#X connect 20 0 21 0;
#X connect 20 0 21 1;
#X connect 22 0 20 1;
#X connect 23 0 5 0;
