#N canvas 649 170 450 409 12;
#X obj 48 30 notein;
#X obj 50 124 mtof;
#X obj 40 77 stripnote;
#X obj 179 49 ctlin 21;
#X floatatom 186 93 5 0 0 0 - - -;
#X floatatom 273 100 5 0 0 0 - - -;
#X obj 266 49 ctlin 22;
#X obj 188 138 send cutoff1;
#X obj 310 135 send releaseRate;
#X obj 50 207 mono_synth;
#X obj 61 334 dac~;
#X obj 64 276 *~;
#X floatatom 121 259 5 0 1 0 - - -;
#X floatatom 116 117 5 0 0 0 - - -;
#X connect 0 0 2 0;
#X connect 0 1 2 1;
#X connect 0 1 9 2;
#X connect 1 0 9 0;
#X connect 2 0 1 0;
#X connect 2 1 13 0;
#X connect 3 0 4 0;
#X connect 4 0 7 0;
#X connect 5 0 8 0;
#X connect 6 0 5 0;
#X connect 9 0 11 0;
#X connect 11 0 10 0;
#X connect 11 0 10 1;
#X connect 12 0 11 1;
#X connect 13 0 9 1;
